<svg width="35" height="35" viewBox="0 0 35 35" fill="none" xmlns="http://www.w3.org/2000/svg">
<rect x="1" y="1" width="33" height="33" rx="9" stroke="#F24E1E" stroke-width="2"/>
<path d="M4.375 7.29167V30.625H13.125V28.4375H10.2083V26.25H13.125V24.0625H7.29167V21.875H13.125V19.6875H10.2083V17.5H13.125V15.3125H7.29167V13.125H13.125V7.29167H15.3125V13.125H17.5V10.2083H19.6875V13.125H21.875V7.29167H24.0625V13.125H26.25V10.2083H28.4375V13.125H30.625V4.375H7.29167C6.51812 4.375 5.77625 4.68229 5.22927 5.22927C4.68229 5.77625 4.375 6.51812 4.375 7.29167ZM8.75 10.2083C8.36323 10.2083 7.99229 10.0547 7.7188 9.7812C7.44531 9.50771 7.29167 9.13677 7.29167 8.75C7.29167 8.36323 7.44531 7.99229 7.7188 7.7188C7.99229 7.44531 8.36323 7.29167 8.75 7.29167C9.13677 7.29167 9.50771 7.44531 9.7812 7.7188C10.0547 7.99229 10.2083 8.36323 10.2083 8.75C10.2083 9.13677 10.0547 9.50771 9.7812 9.7812C9.50771 10.0547 9.13677 10.2083 8.75 10.2083Z" fill="#F24E1E"/>
<path d="M19 29.15L19.2436 31L20.822 29.7167L23.5208 23.3833C22.8583 23.2417 22.2737 22.9583 21.7963 22.5667L19 29.15ZM27.194 22.5667C26.7166 22.9583 26.1222 23.2417 25.4694 23.3833L28.1683 29.7167L29.7467 31L30 29.15L27.194 22.5667ZM27.4181 20.1667C27.4181 19.0833 26.5996 18.1667 25.4694 17.8167V16H23.5208V17.8167C22.3906 18.1667 21.5722 19.0833 21.5722 20.1667C21.5722 21.55 22.8778 22.6667 24.4951 22.6667C26.1125 22.6667 27.4181 21.55 27.4181 20.1667ZM24.4951 21C23.9593 21 23.5208 20.625 23.5208 20.1667C23.5208 19.7083 23.9593 19.3333 24.4951 19.3333C25.031 19.3333 25.4694 19.7083 25.4694 20.1667C25.4694 20.625 25.031 21 24.4951 21Z" fill="#F24E1E"/>
</svg>
