<svg width="35" height="35" viewBox="0 0 35 35" fill="none" xmlns="http://www.w3.org/2000/svg">
<rect x="1" y="1" width="33" height="33" rx="9" fill="white"/>
<rect x="1" y="1" width="33" height="33" rx="9" stroke="#F24E1E" stroke-width="2"/>
<path d="M27.5625 30.625L19.5781 22.6406L22.6406 19.5781L30.625 27.5625L27.5625 30.625ZM7.43749 30.625L4.37499 27.5625L14.4375 17.5L11.9583 15.0208L10.9375 16.0417L9.07812 14.1823V17.1719L8.05729 18.1927L3.64583 13.7812L4.66666 12.7604H7.65624L5.83333 10.9375L11.0104 5.76041C11.4965 5.2743 12.0191 4.92187 12.5781 4.70312C13.1371 4.48437 13.7083 4.37499 14.2917 4.37499C14.875 4.37499 15.4462 4.48437 16.0052 4.70312C16.5642 4.92187 17.0868 5.2743 17.5729 5.76041L14.2187 9.11457L16.0417 10.9375L15.0208 11.9583L17.5 14.4375L20.7812 11.1562C20.684 10.8889 20.6053 10.6094 20.545 10.3177C20.4847 10.026 20.4541 9.73437 20.4531 9.4427C20.4531 8.00867 20.9455 6.79923 21.9304 5.81437C22.9153 4.82951 24.1242 4.33756 25.5573 4.33853C25.9219 4.33853 26.2685 4.37499 26.5971 4.44791C26.9257 4.52082 27.2596 4.6302 27.599 4.77603L23.9896 8.38541L26.6146 11.0104L30.224 7.40103C30.3941 7.74131 30.5098 8.07527 30.571 8.40291C30.6323 8.73055 30.6624 9.07714 30.6615 9.4427C30.6615 10.8767 30.1695 12.0862 29.1856 13.071C28.2017 14.0559 26.9923 14.5478 25.5573 14.5469C25.2656 14.5469 24.974 14.5226 24.6823 14.474C24.3906 14.4253 24.1111 14.3403 23.8437 14.2187L7.43749 30.625Z" fill="#F24E1E"/>
</svg>
