<svg width="35" height="35" viewBox="0 0 35 35" fill="none" xmlns="http://www.w3.org/2000/svg">
<rect x="1" y="1" width="33" height="33" rx="9" stroke="#F24E1E" stroke-width="2"/>
<path d="M17.5 18.9583V13.125C17.5 12.3229 16.8438 11.6667 16.0417 11.6667H10.2083V8.75H17.5V5.83333H13.8542V4.375H10.9375V5.83333H8.75C7.94792 5.83333 7.29167 6.48958 7.29167 7.29167V13.125C7.29167 13.9271 7.94792 14.5833 8.75 14.5833H14.5833V17.5H7.29167V20.4167H10.9375V21.875H13.8542V20.4167H16.0417C16.8438 20.4167 17.5 19.7604 17.5 18.9583ZM28.5688 18.2583L20.3146 26.4979L16.1875 22.3708L14.1313 24.4417L20.3146 30.625L30.625 20.3146L28.5688 18.2583Z" fill="#F24E1E"/>
</svg>
