<svg width="35" height="35" viewBox="0 0 35 35" fill="none" xmlns="http://www.w3.org/2000/svg">
<path d="M18.9766 7.29095C18.9357 7.20749 18.9167 7.11499 18.9215 7.02217C18.9263 6.92936 18.9546 6.83929 19.0039 6.76048C19.0532 6.68167 19.1217 6.61671 19.203 6.57174C19.2844 6.52677 19.3758 6.50326 19.4687 6.50345H26.7969C26.9419 6.50345 27.081 6.56107 27.1836 6.66363C27.2861 6.76618 27.3438 6.90528 27.3438 7.05032V9.29689C27.3438 9.44193 27.2861 9.58103 27.1836 9.68359C27.081 9.78615 26.9419 9.84376 26.7969 9.84376H18.0469C17.9018 9.84376 17.7627 9.78615 17.6602 9.68359C17.5576 9.58103 17.5 9.44193 17.5 9.29689C17.5 9.15185 17.5576 9.01275 17.6602 8.91019C17.7627 8.80763 17.9018 8.75001 18.0469 8.75001H19.6875L18.9766 7.29095ZM19.6875 11.4844C19.6875 11.3393 19.7451 11.2002 19.8477 11.0977C19.9502 10.9951 20.0893 10.9375 20.2344 10.9375H26.7969C26.9419 10.9375 27.081 10.9951 27.1836 11.0977C27.2861 11.2002 27.3438 11.3393 27.3438 11.4844V12.0313C27.3438 12.4622 27.2453 12.8888 27.0528 13.2869C26.8521 13.6952 26.5691 14.0575 26.2216 14.3511C25.8672 14.6563 25.445 14.898 24.9802 15.062C24.0321 15.3962 22.9983 15.3966 22.05 15.0631C21.5961 14.9043 21.1753 14.6633 20.8086 14.3522C20.4614 14.0581 20.1787 13.6954 19.9784 13.2869C19.7878 12.8957 19.6883 12.4664 19.6875 12.0313V11.4844ZM27.032 16.4063C27.1418 16.406 27.2492 16.4388 27.3401 16.5004C27.431 16.5619 27.5013 16.6495 27.5418 16.7516C27.5823 16.8536 27.5911 16.9655 27.5671 17.0727C27.5431 17.1799 27.4874 17.2773 27.4072 17.3524L19.1559 25.0961C19.1085 25.1408 19.0489 25.1706 18.9847 25.1818C18.9205 25.193 18.8544 25.1851 18.7946 25.1592C18.7348 25.1332 18.6839 25.0903 18.6482 25.0358C18.6125 24.9812 18.5936 24.9174 18.5938 24.8522V20.4225L13.2081 24.4081C12.8582 24.662 12.4221 24.7675 11.9948 24.7016C11.5675 24.6357 11.1835 24.4038 10.9262 24.0563C10.669 23.7088 10.5593 23.2739 10.621 22.8459C10.6827 22.418 10.9108 22.0317 11.2558 21.7711L18.0666 16.73C18.3601 16.5121 18.7183 16.3993 19.0837 16.4095C19.1026 16.4075 19.1216 16.4064 19.1406 16.4063H27.032ZM18.7622 27.2945C18.7088 27.3457 18.6663 27.4072 18.6374 27.4753C18.6084 27.5433 18.5936 27.6165 18.5938 27.6905V27.8906C18.5938 28.0357 18.6514 28.1748 18.7539 28.2773C18.8565 28.3799 18.9956 28.4375 19.1406 28.4375H27.8906C28.0357 28.4375 28.1748 28.3799 28.2773 28.2773C28.3799 28.1748 28.4375 28.0357 28.4375 27.8906V19.3211C28.4377 19.2138 28.4064 19.1089 28.3474 19.0193C28.2884 18.9297 28.2044 18.8594 28.1058 18.8172C28.0071 18.775 27.8983 18.7627 27.7927 18.7819C27.6872 18.8011 27.5896 18.8509 27.5122 18.9252L18.7622 27.2945ZM7.65625 18.5938C7.36617 18.5938 7.08797 18.709 6.88285 18.9141C6.67773 19.1192 6.5625 19.3974 6.5625 19.6875V25.1563C6.5625 25.4463 6.67773 25.7245 6.88285 25.9297C7.08797 26.1348 7.36617 26.25 7.65625 26.25H8.75V18.7305C8.75 18.6942 8.7356 18.6594 8.70996 18.6338C8.68432 18.6082 8.64954 18.5938 8.61328 18.5938H7.65625ZM8.75 27.3438C8.75 27.6338 8.86523 27.912 9.07035 28.1172C9.27547 28.3223 9.55367 28.4375 9.84375 28.4375H15.3125C15.6026 28.4375 15.8808 28.3223 16.0859 28.1172C16.291 27.912 16.4062 27.6338 16.4062 27.3438V26.3867C16.4062 26.3505 16.3918 26.3157 16.3662 26.2901C16.3406 26.2644 16.3058 26.25 16.2695 26.25H8.88672C8.85046 26.25 8.81568 26.2644 8.79004 26.2901C8.7644 26.3157 8.75 26.3505 8.75 26.3867V27.3438Z" fill="#F24E1E"/>
<path d="M6.5625 1.09375C5.84433 1.09375 5.1332 1.2352 4.4697 1.51003C3.8062 1.78486 3.20333 2.18769 2.69551 2.69551C1.66992 3.7211 1.09375 5.1121 1.09375 6.5625V28.4375C1.09375 29.8879 1.66992 31.2789 2.69551 32.3045C3.20333 32.8123 3.8062 33.2151 4.4697 33.49C5.1332 33.7648 5.84433 33.9062 6.5625 33.9062H28.4375C29.8879 33.9062 31.2789 33.3301 32.3045 32.3045C33.3301 31.2789 33.9062 29.8879 33.9062 28.4375V6.5625C33.9062 5.84433 33.7648 5.1332 33.49 4.4697C33.2151 3.8062 32.8123 3.20333 32.3045 2.69551C31.7967 2.18769 31.1938 1.78486 30.5303 1.51003C29.8668 1.2352 29.1557 1.09375 28.4375 1.09375H6.5625ZM3.28125 6.5625C3.28125 5.69226 3.62695 4.85766 4.24231 4.24231C4.85766 3.62695 5.69226 3.28125 6.5625 3.28125H28.4375C29.3077 3.28125 30.1423 3.62695 30.7577 4.24231C31.373 4.85766 31.7187 5.69226 31.7188 6.5625V28.4375C31.7187 29.3077 31.373 30.1423 30.7577 30.7577C30.1423 31.373 29.3077 31.7187 28.4375 31.7188H6.5625C5.69226 31.7187 4.85766 31.373 4.24231 30.7577C3.62695 30.1423 3.28125 29.3077 3.28125 28.4375V6.5625Z" fill="#F24E1E"/>
</svg>
