<svg width="41" height="40" viewBox="0 0 41 40" fill="none" xmlns="http://www.w3.org/2000/svg">
<path d="M0.105957 20.0015C0.105957 31.0472 9.06026 40.0015 20.106 40.0015C31.1517 40.0015 40.106 31.0472 40.106 20.0015C40.106 8.95577 31.1517 0.00146484 20.106 0.00146484C9.06026 0.00146484 0.105957 8.95577 0.105957 20.0015Z" fill="#05A0A5"/>
<path d="M30.106 20.0015C30.106 14.5015 25.606 10.0015 20.106 10.0015C14.606 10.0015 10.106 14.5015 10.106 20.0015C10.106 25.0015 13.731 29.1265 18.481 29.8765V22.8765H15.981V20.0015H18.481V17.7515C18.481 15.2515 19.981 13.8765 22.231 13.8765C23.356 13.8765 24.481 14.1265 24.481 14.1265V16.6265H23.231C21.981 16.6265 21.606 17.3765 21.606 18.1265V20.0015H24.356L23.856 22.8765H21.481V30.0015C26.481 29.2515 30.106 25.0015 30.106 20.0015Z" fill="white"/>
</svg>
