<svg width="39" height="39" viewBox="0 0 39 39" fill="none" xmlns="http://www.w3.org/2000/svg">
<rect x="1" y="1" width="37" height="37" rx="11" stroke="#F24E1E" stroke-width="2"/>
<path d="M11.625 4.84375C10.3125 5.5 9.875 7.25 10.75 8.125C11.8437 6.15625 13.5937 6.8125 16.2187 9C17.9687 10.5313 20.375 9.21875 20.375 9.21875C20.375 9.21875 20.8125 11.8437 24.0937 12.2812C27.8125 12.7187 29.125 10.5313 29.125 10.5313C29.125 10.5313 30 12.7188 33.2812 11.4063C35.6875 10.5313 34.8125 9 34.8125 9C34.8125 9 37 9 37 7.46875C37 5.5 34.5937 5.71875 34.5937 5.71875C34.5937 5.71875 35.0312 3.53125 32.625 3.3125C30.4375 3.09375 29.7812 4.40625 29.7812 4.40625C29.7812 4.40625 29.125 2 25.8437 2C22.7812 2 21.6875 4.84375 21.6875 4.84375C21.6875 4.84375 20.8125 3.53125 18.1875 3.53125C16.2187 3.53125 15.3437 5.0625 15.3437 5.0625C15.3437 5.0625 12.9375 3.96875 11.625 4.84375Z" fill="#F24E1E"/>
<path d="M30.2836 27.4011C29.3592 27.8864 28.25 27.216 28.25 26.1719V26.1719C28.25 25.1278 27.1408 24.4573 26.2164 24.9427L22.035 27.1379C20.8827 27.7428 19.5 26.9071 19.5 25.6056V25.6056C19.5 24.6498 18.7252 23.875 17.7694 23.875H16.7627C15.3416 23.875 14.1568 22.7874 14.0354 21.3715L13.1243 10.742C13.0187 9.50931 11.9872 8.5625 10.75 8.5625V8.5625C9.51278 8.5625 8.48134 9.50931 8.37569 10.742L7.46459 21.3715C7.34322 22.7874 6.15845 23.875 4.73729 23.875V23.875C3.22553 23.875 2 25.1005 2 26.6123V30.4375C2 34.0619 4.93813 37 8.5625 37H32.0554C34.7862 37 37 34.7862 37 32.0554V28.8163C37 26.5701 34.6137 25.1278 32.625 26.1719L30.2836 27.4011ZM15.125 30.4375C15.125 31.6456 14.1456 32.625 12.9375 32.625H8.5625C7.35438 32.625 6.375 31.6456 6.375 30.4375V30.4375C6.375 29.2294 7.35438 28.25 8.5625 28.25H12.9375C14.1456 28.25 15.125 29.2294 15.125 30.4375V30.4375Z" fill="#F24E1E"/>
</svg>
