<svg width="256" height="256" viewBox="0 0 256 256" fill="none" xmlns="http://www.w3.org/2000/svg">
<path d="M48 16H208C225.728 16 240 30.272 240 48V208C240 225.728 225.728 240 208 240H48C30.272 240 16 225.728 16 208V48C16 30.272 30.272 16 48 16Z" stroke="white" stroke-width="16" stroke-linecap="round" stroke-linejoin="round"/>
<path d="M64 64H80" stroke="white" stroke-width="16" stroke-linecap="round" stroke-linejoin="round"/>
<path d="M96 80C91.7565 80 87.6869 78.3143 84.6863 75.3137C81.6857 72.3131 80 68.2435 80 64C80 59.7565 81.6857 55.6869 84.6863 52.6863C87.6869 49.6857 91.7565 48 96 48C98.1011 48 100.182 48.4139 102.123 49.2179C104.064 50.022 105.828 51.2006 107.314 52.6863C108.799 54.172 109.978 55.9359 110.782 57.8771C111.586 59.8183 112 61.8988 112 64C112 66.1012 111.586 68.1817 110.782 70.1229C109.978 72.0641 108.799 73.828 107.314 75.3137C105.828 76.7994 104.064 77.978 102.123 78.7821C100.182 79.5861 98.1011 80 96 80Z" stroke="white" stroke-width="16" stroke-linecap="round" stroke-linejoin="round"/>
<path d="M112 64.0004L192 64" stroke="white" stroke-width="16" stroke-linecap="round" stroke-linejoin="round"/>
<path d="M192 128H176" stroke="white" stroke-width="16" stroke-linecap="round" stroke-linejoin="round"/>
<path d="M160 144C164.243 144 168.313 142.314 171.314 139.314C174.314 136.313 176 132.243 176 128C176 123.757 174.314 119.687 171.314 116.686C168.313 113.686 164.243 112 160 112C155.757 112 151.687 113.686 148.686 116.686C145.686 119.687 144 123.757 144 128C144 132.243 145.686 136.313 148.686 139.314C151.687 142.314 155.757 144 160 144Z" stroke="white" stroke-width="16" stroke-linecap="round" stroke-linejoin="round"/>
<path d="M144 128L64 128" stroke="white" stroke-width="16" stroke-linecap="round" stroke-linejoin="round"/>
<path d="M64 192H80" stroke="white" stroke-width="16" stroke-linecap="round" stroke-linejoin="round"/>
<path d="M96 208C91.7565 208 87.6869 206.314 84.6863 203.314C81.6857 200.313 80 196.243 80 192C80 187.757 81.6857 183.687 84.6863 180.686C87.6869 177.686 91.7565 176 96 176C98.1011 176 100.182 176.414 102.123 177.218C104.064 178.022 105.828 179.201 107.314 180.686C108.799 182.172 109.978 183.936 110.782 185.877C111.586 187.818 112 189.899 112 192C112 194.101 111.586 196.182 110.782 198.123C109.978 200.064 108.799 201.828 107.314 203.314C105.828 204.799 104.064 205.978 102.123 206.782C100.182 207.586 98.1011 208 96 208Z" stroke="white" stroke-width="16" stroke-linecap="round" stroke-linejoin="round"/>
<path d="M112 192L192 192" stroke="white" stroke-width="16" stroke-linecap="round" stroke-linejoin="round"/>
</svg>
