<svg width="40" height="40" viewBox="0 0 40 40" fill="none" xmlns="http://www.w3.org/2000/svg">
<rect width="40" height="40" rx="20" fill="#E46322"/>
<path d="M22.4875 18.3008C22.5227 18.6523 22.593 18.9688 22.593 19.4258C22.593 23.293 19.9914 26 16.0891 26C12.3625 26 9.33906 23.0117 9.33906 19.25C9.33906 15.5234 12.3625 12.5 16.0891 12.5C17.9172 12.5 19.4289 13.168 20.6242 14.293L18.7961 16.0508C18.3039 15.5586 17.425 14.9961 16.0891 14.9961C13.8039 14.9961 11.9055 16.8945 11.9055 19.25C11.9055 21.6406 13.8039 23.5391 16.0891 23.5391C18.7609 23.5391 19.7805 21.6055 19.9211 20.6211H16.0891V18.3008H22.4875ZM28.9914 18.5117H30.9602V20.4805H28.9914V22.4492H27.0227V20.4805H25.0539V18.5117H27.0227V16.5781H28.9914V18.5117Z" fill="white"/>
</svg>
