<svg width="77" height="77" viewBox="0 0 77 77" fill="none" xmlns="http://www.w3.org/2000/svg">
<path d="M20.7808 35.3975C20.7795 35.7304 20.8445 36.0602 20.9718 36.3677C21.0992 36.6752 21.2864 36.9542 21.5226 37.1885L22.4127 38.0795C23.6003 39.267 25.2102 39.9339 26.8887 39.9339C28.5673 39.9339 30.1772 39.267 31.3647 38.0795L37.6759 31.7696C40.1702 33.8619 43.3231 35.0044 46.5775 34.9951C48.4082 34.9982 50.2215 34.6385 51.9127 33.9368C53.604 33.2352 55.1397 32.2054 56.4315 30.9068C56.5566 30.7915 56.6573 30.6521 56.7274 30.4969C56.7975 30.3418 56.8356 30.1741 56.8395 30.0039C56.8434 29.8337 56.813 29.6644 56.75 29.5062C56.6871 29.3481 56.593 29.2042 56.4732 29.0833C56.3535 28.9623 56.2107 28.8668 56.0532 28.8023C55.8958 28.7379 55.727 28.7059 55.5569 28.7083C55.3868 28.7106 55.2189 28.7472 55.0633 28.816C54.9077 28.8847 54.7675 28.9842 54.6512 29.1084C53.5943 30.1728 52.3371 31.017 50.9523 31.5923C49.5676 32.1676 48.0827 32.4625 46.5834 32.4601C45.0863 32.4656 43.6029 32.1736 42.2193 31.601C40.8357 31.0285 39.5793 30.1868 38.5231 29.1247C38.2855 28.8872 37.9635 28.7538 37.6277 28.7538C37.292 28.7538 36.9699 28.8872 36.7324 29.1247L29.5696 36.293C28.1364 37.7291 25.6336 37.7291 24.199 36.293L23.3088 35.402L38.532 20.1655C39.9518 18.7443 41.2989 18.7443 43.008 18.7443C44.8357 18.7443 47.1131 18.7443 49.2747 16.5821L52.8546 12.9972C52.9721 12.8795 53.0654 12.7398 53.129 12.586C53.1927 12.4322 53.2254 12.2674 53.2254 12.1009C53.2254 11.9345 53.1927 11.7697 53.129 11.6159C53.0654 11.4621 52.9721 11.3224 52.8546 11.2047C52.737 11.087 52.5974 10.9937 52.4438 10.93C52.2902 10.8663 52.1255 10.8335 51.9592 10.8335C51.7929 10.8335 51.6283 10.8663 51.4747 10.93C51.321 10.9937 51.1815 11.087 51.0639 11.2047L47.484 14.7881C46.0642 16.2049 44.7111 16.2049 43.0065 16.2049C41.1787 16.2049 38.9029 16.2049 36.7413 18.3671L21.5241 33.6036C21.288 33.8387 21.1008 34.1183 20.9732 34.4262C20.8456 34.7341 20.7802 35.0642 20.7808 35.3975Z" fill="#E17C26"/>
<path d="M11.9341 14.3766C12.4349 14.3766 12.9245 14.2279 13.3409 13.9495C13.7574 13.671 14.082 13.2752 14.2737 12.812C14.4654 12.3489 14.5156 11.8393 14.418 11.3476C14.3204 10.8559 14.0794 10.4042 13.7254 10.0496C13.3713 9.69506 12.9202 9.45351 12.4291 9.35553C11.9379 9.25755 11.4288 9.30754 10.966 9.49918C10.5032 9.69082 10.1076 10.0155 9.82913 10.4322C9.55068 10.8489 9.4019 11.3388 9.40161 11.8401C9.402 12.5125 9.6689 13.1572 10.1437 13.6327C10.6185 14.1083 11.2624 14.3758 11.9341 14.3766Z" fill="#E17C26"/>
<path d="M24.208 18.3714L27.7894 21.9563C28.0268 22.1938 28.3488 22.3271 28.6845 22.327C29.0202 22.3268 29.3421 22.1932 29.5793 21.9555C29.8166 21.7178 29.9498 21.3955 29.9497 21.0595C29.9495 20.7235 29.8161 20.4013 29.5786 20.1638L25.9987 16.5804C25.8812 16.4627 25.7417 16.3694 25.5882 16.3056C25.4346 16.2419 25.2701 16.2091 25.1039 16.209C24.9376 16.2089 24.773 16.2416 24.6195 16.3052C24.4659 16.3688 24.3263 16.4621 24.2087 16.5797C24.0911 16.6973 23.9979 16.8369 23.9342 16.9906C23.8705 17.1443 23.8377 17.309 23.8376 17.4754C23.8376 17.6418 23.8702 17.8065 23.9338 17.9603C23.9973 18.114 24.0905 18.2537 24.208 18.3714Z" fill="#E17C26"/>
<path d="M65.106 9.30626C65.6068 9.30656 66.0966 9.15817 66.5132 8.87987C66.9298 8.60157 67.2546 8.20585 67.4466 7.74276C67.6385 7.27967 67.689 6.77 67.5916 6.27821C67.4941 5.78641 67.2532 5.33458 66.8992 4.97985C66.5453 4.62513 66.0942 4.38343 65.603 4.28533C65.1118 4.18723 64.6025 4.23713 64.1397 4.42872C63.6768 4.62032 63.2811 4.945 63.0026 5.36171C62.7241 5.77842 62.5752 6.26844 62.575 6.76981C62.5753 7.44188 62.842 8.08636 63.3165 8.56187C63.791 9.03738 64.4345 9.30508 65.106 9.30626Z" fill="#E17C26"/>
<path d="M68.0034 27.4196C65.9457 29.4793 65.2395 32.834 64.557 36.0774C63.9517 38.9569 63.3257 41.9359 61.8005 43.4625L60.0098 45.2534C59.7842 45.4947 59.6613 45.8143 59.6672 46.1447C59.673 46.4751 59.8072 46.7902 60.0412 47.0233C60.2752 47.2563 60.5907 47.3891 60.9207 47.3933C61.2508 47.3975 61.5696 47.2729 61.8094 47.0459L63.5897 45.2534C65.646 43.1952 66.3507 39.8434 67.0332 36.6001C67.6399 33.7176 68.2675 30.7386 69.7912 29.212C69.9132 29.0955 70.0108 28.9558 70.0782 28.801C70.1456 28.6463 70.1814 28.4796 70.1834 28.3108C70.1855 28.142 70.1539 27.9745 70.0904 27.8181C70.0269 27.6617 69.9328 27.5196 69.8136 27.4001C69.6945 27.2806 69.5527 27.1862 69.3965 27.1224C69.2404 27.0585 69.0731 27.0266 68.9044 27.0284C68.7358 27.0302 68.5692 27.0657 68.4145 27.1329C68.2597 27.2001 68.12 27.2976 68.0034 27.4196Z" fill="#E17C26"/>
<path d="M76.1293 27.4196L55.5074 6.77751L59.6763 2.60455C59.9024 2.36387 60.0261 2.04452 60.021 1.71415C60.016 1.38378 59.8826 1.06836 59.6492 0.834727C59.4158 0.601094 59.1007 0.467607 58.7707 0.462551C58.4406 0.457496 58.1216 0.58127 57.8811 0.807645L52.8176 5.87609C52.5825 6.11288 52.4504 6.43322 52.4504 6.76712C52.4504 7.10102 52.5825 7.42136 52.8176 7.65814L74.3401 29.212C74.5776 29.4495 74.8996 29.5829 75.2353 29.5827C75.5709 29.5826 75.8928 29.449 76.1301 29.2113C76.3673 28.9736 76.5006 28.6513 76.5004 28.3153C76.5003 27.9793 76.3668 27.6571 76.1293 27.4196Z" fill="#E17C26"/>
<path d="M47.4839 38.0853C47.3664 37.9676 47.2268 37.8743 47.0732 37.8106C46.9195 37.7469 46.7549 37.7141 46.5886 37.7141C46.4223 37.7141 46.2577 37.7469 46.104 37.8106C45.9504 37.8743 45.8108 37.9676 45.6932 38.0853C45.5757 38.203 45.4824 38.3427 45.4188 38.4965C45.3551 38.6503 45.3224 38.8151 45.3224 38.9816C45.3224 39.148 45.3551 39.3128 45.4188 39.4666C45.4824 39.6204 45.5757 39.7601 45.6932 39.8778L59.1213 53.3189C59.5794 53.7975 59.832 54.4367 59.825 55.0995C59.818 55.7623 59.5519 56.396 59.0837 56.8648C58.6156 57.3336 57.9826 57.6002 57.3205 57.6075C56.6583 57.6148 56.0197 57.3622 55.5413 56.9038L42.1133 43.4627C41.8761 43.225 41.5542 43.0914 41.2185 43.0912C40.8828 43.0911 40.5608 43.2244 40.3234 43.4619C40.0859 43.6994 39.9524 44.0216 39.9523 44.3576C39.9522 44.6936 40.0854 45.0159 40.3226 45.2536L57.3306 62.2796C57.7998 62.7562 58.0618 63.3992 58.0594 64.0683C58.057 64.7375 57.7904 65.3785 57.3177 65.8517C56.845 66.3248 56.2046 66.5917 55.5361 66.5941C54.8676 66.5965 54.2253 66.3343 53.7492 65.8645L37.6329 49.7385C37.5295 49.6001 37.399 49.4845 37.2493 49.3985C37.0996 49.3126 36.9339 49.2582 36.7624 49.2387C36.591 49.2192 36.4173 49.235 36.2522 49.2851C36.087 49.3353 35.9339 49.4187 35.8022 49.5303C35.6704 49.6419 35.5629 49.7793 35.4861 49.934C35.4094 50.0887 35.3651 50.2575 35.3559 50.43C35.3467 50.6025 35.3729 50.775 35.4328 50.937C35.4927 51.099 35.5851 51.247 35.7042 51.372C35.7491 51.4259 35.7988 51.4756 35.8526 51.5205L50.1752 65.8571C50.649 66.3331 50.9151 66.9776 50.9151 67.6495C50.9151 68.3215 50.649 68.966 50.1752 69.442C49.6935 69.9039 49.0523 70.1618 48.3852 70.1618C47.7182 70.1618 47.0769 69.9039 46.5953 69.442L44.8031 67.651L33.1643 56.0038C32.9252 55.7754 32.6063 55.6496 32.2758 55.6534C31.9452 55.6573 31.6293 55.7904 31.3956 56.0244C31.1619 56.2583 31.0289 56.5746 31.025 56.9054C31.0212 57.2363 31.1468 57.5555 31.3751 57.7948L43.0109 69.4435C43.246 69.6788 43.4324 69.9581 43.5596 70.2655C43.6869 70.5729 43.7523 70.9024 43.7523 71.2352C43.7523 71.5679 43.6869 71.8974 43.5596 72.2048C43.4324 72.5123 43.246 72.7916 43.0109 73.0269C42.7759 73.2622 42.4968 73.4488 42.1897 73.5762C41.8826 73.7035 41.5534 73.769 41.221 73.769C40.8885 73.769 40.5594 73.7035 40.2522 73.5762C39.9451 73.4488 39.6661 73.2622 39.431 73.0269L17.9011 51.4938C14.6179 48.2074 13.9058 44.0686 13.2768 40.4079C12.7471 37.3324 12.2471 34.4292 10.3096 32.4852C10.0717 32.2466 9.74888 32.1122 9.41208 32.1118C9.07529 32.1114 8.75212 32.2449 8.51368 32.483C8.27523 32.7211 8.14104 33.0442 8.14063 33.3814C8.14021 33.7185 8.2736 34.042 8.51145 34.2807C9.88526 35.6558 10.2918 38.0601 10.7784 40.8431C11.4356 44.6715 12.262 49.434 16.1074 53.2892L37.6344 74.8223C38.2834 75.4708 39.096 75.9309 39.9857 76.1534C40.8754 76.3759 41.8088 76.3526 42.6862 76.0858C43.5637 75.819 44.3524 75.3189 44.9682 74.6387C45.584 73.9585 46.0038 73.1237 46.1828 72.2235C47.1318 72.6628 48.1915 72.8037 49.2221 72.6277C50.2528 72.4516 51.2058 71.9669 51.9555 71.2374C52.667 70.5286 53.1506 69.6231 53.3441 68.6371C54.4218 69.1561 55.6482 69.2766 56.8061 68.9771C57.964 68.6777 58.9786 67.9777 59.6703 67.0011C60.3619 66.0245 60.6859 64.8344 60.5849 63.6416C60.4839 62.4488 59.9643 61.3303 59.1183 60.4842L58.6376 60.0031C59.4975 59.7742 60.2819 59.3226 60.9118 58.6936C61.5417 58.0646 61.9949 57.2806 62.2257 56.4204C62.4564 55.5603 62.4566 54.6545 62.2263 53.7943C61.9959 52.934 61.5431 52.1498 60.9134 51.5205L47.4839 38.0853Z" fill="#E17C26"/>
<path d="M24.2228 10.9461L16.6268 3.34268C16.3877 3.11421 16.0688 2.98844 15.7383 2.99227C15.4078 2.99611 15.0919 3.12924 14.8581 3.36321C14.6244 3.59717 14.4914 3.91339 14.4875 4.24425C14.4837 4.5751 14.6094 4.89432 14.8376 5.13365L21.539 11.8416L0.917069 32.4837C0.680566 32.7122 0.542051 33.0238 0.530776 33.3526C0.5195 33.6815 0.636347 34.0018 0.85664 34.246C1.07693 34.4903 1.38343 34.6392 1.71139 34.6614C2.03935 34.6837 2.36312 34.5775 2.6143 34.3652C2.64249 34.3385 2.67068 34.3103 2.69738 34.2806L24.2228 12.7385C24.4573 12.5014 24.5888 12.1812 24.5888 11.8475C24.5888 11.5139 24.4573 11.1937 24.2228 10.9565V10.9461Z" fill="#E17C26"/>
<path d="M31.6778 73.7027C30.9731 74.0725 29.7685 74.117 28.684 73.0329C27.5995 71.9489 27.6069 70.6821 27.96 70.1326C28.1302 69.8696 28.197 69.5527 28.1474 69.2432C28.0978 68.9337 27.9353 68.6536 27.6913 68.4571C27.4474 68.2605 27.1393 68.1615 26.8267 68.1791C26.514 68.1968 26.219 68.3298 25.9987 68.5526C25.5226 69.0223 24.8802 69.2846 24.2117 69.2822C23.5432 69.2797 22.9028 69.0129 22.4301 68.5397C21.9574 68.0665 21.6908 67.4255 21.6884 66.7563C21.686 66.0872 21.948 65.4442 22.4173 64.9677C22.6547 64.73 22.7881 64.4076 22.7881 64.0714C22.7881 63.7353 22.6547 63.4129 22.4173 63.1752C22.1798 62.9375 21.8577 62.804 21.5219 62.804C21.1861 62.804 20.864 62.9375 20.6266 63.1752L19.7364 64.0662C19.5014 64.3015 19.2223 64.4882 18.9152 64.6155C18.6081 64.7429 18.2789 64.8084 17.9465 64.8084C17.614 64.8084 17.2849 64.7429 16.9777 64.6155C16.6706 64.4882 16.3916 64.3015 16.1565 64.0662C15.9214 63.831 15.735 63.5516 15.6078 63.2442C15.4806 62.9368 15.4151 62.6073 15.4151 62.2745C15.4151 61.9418 15.4806 61.6123 15.6078 61.3049C15.735 60.9975 15.9214 60.7181 16.1565 60.4828L17.0467 59.5918C17.2576 59.3738 17.3835 59.0872 17.4014 58.7842C17.4193 58.4812 17.328 58.1818 17.1441 57.9405C16.9603 57.6991 16.696 57.5317 16.3994 57.4688C16.1027 57.4058 15.7934 57.4515 15.5275 57.5974C14.8391 57.9954 13.627 57.9494 12.581 56.9039C11.4698 55.7916 11.4758 54.5575 11.8392 54.0378C12.0472 53.7733 12.1417 53.4369 12.1019 53.1027C12.0621 52.7685 11.8913 52.4639 11.6271 52.2557C11.3629 52.0475 11.0269 51.953 10.693 51.9928C10.3591 52.0326 10.0547 52.2036 9.84678 52.4681C9.81395 52.5097 9.78372 52.5534 9.75628 52.5987C8.73112 54.0838 8.75931 56.6559 10.7948 58.6948C11.491 59.4157 12.3668 59.9376 13.3317 60.2066C12.9442 61.0745 12.808 62.0339 12.9389 62.9754C13.0698 63.9169 13.4625 64.8027 14.0721 65.5316C14.6817 66.2606 15.4836 66.8033 16.3865 67.098C17.2894 67.3927 18.2569 67.4274 19.1786 67.1982C19.2405 67.9122 19.4531 68.6049 19.8023 69.2306C20.1514 69.8563 20.6292 70.4008 21.2041 70.828C21.779 71.2552 22.4379 71.5555 23.1372 71.7091C23.8366 71.8626 24.5606 71.8659 25.2613 71.7187C25.4568 72.904 26.0292 73.9946 26.8933 74.8283C28.0638 75.9986 29.4317 76.4619 30.6794 76.4619C31.4348 76.4654 32.1801 76.2877 32.8529 75.9436C33.1487 75.7868 33.3704 75.5191 33.4694 75.1991C33.5685 74.8791 33.5369 74.5328 33.3815 74.236C33.2261 73.9393 32.9596 73.7163 32.6403 73.6157C32.321 73.5152 31.975 73.5454 31.6778 73.6997V73.7027Z" fill="#E17C26"/>
</svg>
