<svg width="77" height="77" viewBox="0 0 77 77" fill="none" xmlns="http://www.w3.org/2000/svg">
<path d="M7.62354 69.3094H22.3705V56.9707H7.62354V69.3094ZM10.0814 59.4384H19.9127V66.8417H10.0814V59.4384Z" fill="#E17C26"/>
<path d="M27.2861 56.9707V69.3094H42.0331V56.9707H27.2861ZM39.5753 66.8417H29.744V59.4384H39.5753V66.8417Z" fill="#E17C26"/>
<path d="M17.4549 26.1243V13.7856C17.4549 12.8039 17.0664 11.8623 16.375 11.1682C15.6836 10.474 14.7459 10.084 13.7681 10.084H11.3103C10.3325 10.084 9.39476 10.474 8.70336 11.1682C8.01196 11.8623 7.62354 12.8039 7.62354 13.7856V26.1243C7.62354 27.106 8.01196 28.0476 8.70336 28.7417C9.39476 29.4359 10.3325 29.8259 11.3103 29.8259H13.7681C14.7459 29.8259 15.6836 29.4359 16.375 28.7417C17.0664 28.0476 17.4549 27.106 17.4549 26.1243ZM10.0814 26.1243V13.7856C10.0814 13.4584 10.2108 13.1445 10.4413 12.9131C10.6718 12.6817 10.9844 12.5517 11.3103 12.5517H13.7681C14.094 12.5517 14.4066 12.6817 14.6371 12.9131C14.8676 13.1445 14.997 13.4584 14.997 13.7856V26.1243C14.997 26.4515 14.8676 26.7654 14.6371 26.9968C14.4066 27.2282 14.094 27.3582 13.7681 27.3582H11.3103C10.9844 27.3582 10.6718 27.2282 10.4413 26.9968C10.2108 26.7654 10.0814 26.4515 10.0814 26.1243Z" fill="#E17C26"/>
<path d="M61.5744 30.6648C60.9083 30.1402 60.0861 29.8551 59.2395 29.8551C58.3929 29.8551 57.5707 30.1402 56.9045 30.6648L54.9168 32.2935H34.5552C34.6191 31.8853 34.654 31.4729 34.6596 31.0597V26.1242H50.0641L52.4789 22.4873L54.8937 26.1242H57.4376L59.8524 22.4873L62.2672 26.1242H64.8111L67.2259 22.4873L69.6407 26.1242H72.1416L76.75 19.9548L72.1416 13.7855H34.6596V8.84999C34.6568 6.56016 33.7496 4.36494 32.1369 2.74579C30.5243 1.12664 28.3379 0.215748 26.0572 0.212891L8.85241 0.212891C6.57178 0.215748 4.38538 1.12664 2.77273 2.74579C1.16008 4.36494 0.252845 6.56016 0.25 8.84999V31.0597C0.253653 32.693 0.719551 34.2916 1.5934 35.6692C2.46725 37.0468 3.71305 38.1468 5.18563 38.8408L0.25 42.8061V52.0355H2.70783V76.7129H73.9849V48.0994C74.6038 47.8863 75.1543 47.5104 75.5792 47.0108C76.004 46.5113 76.2875 45.9064 76.4002 45.2594C76.5128 44.6123 76.4505 43.9468 76.2197 43.3321C75.9889 42.7175 75.598 42.1763 75.0879 41.765L61.5744 30.6648ZM58.4699 32.5696C58.6917 32.395 58.9653 32.3001 59.2472 32.3001C59.529 32.3001 59.8027 32.395 60.0245 32.5696L73.5425 43.6745C73.6676 43.7769 73.7714 43.9031 73.848 44.0459C73.9245 44.1886 73.9722 44.3451 73.9885 44.5064C74.0048 44.6676 73.9892 44.8306 73.9427 44.9858C73.8963 45.141 73.8198 45.2856 73.7177 45.4111C73.5069 45.6575 73.2099 45.8133 72.8881 45.8463C72.5662 45.8793 72.244 45.787 71.988 45.5885L59.238 35.1222L46.5018 45.5854C46.2455 45.785 45.9227 45.8782 45.6 45.8457C45.2773 45.8133 44.9793 45.6577 44.7675 45.4111C44.5622 45.1577 44.4653 44.833 44.4981 44.508C44.531 44.183 44.6908 43.8844 44.9426 43.6775L58.4699 32.5696ZM43.3849 41.7681C42.6291 42.3896 42.1499 43.2869 42.0526 44.263C41.9552 45.239 42.2477 46.2139 42.8657 46.9735C43.2924 47.4884 43.856 47.8709 44.491 48.0763V49.5677H2.70783V44.6322H39.5753V42.1645H4.98286L14.1997 34.7613H51.9136L43.3849 41.7681ZM46.9488 23.6564H34.6596V21.1887H45.7199C46.0458 21.1887 46.3584 21.3187 46.5889 21.5501C46.8193 21.7815 46.9488 22.0953 46.9488 22.4226V23.6564ZM70.9127 16.2532L73.6777 19.9548L70.9357 23.6271L68.4978 19.9548H65.954L63.5392 23.5917L61.1243 19.9548H58.5805L56.1657 23.5917L53.7508 19.9548H51.207L49.4066 22.6663V22.4226C49.4066 21.4408 49.0182 20.4993 48.3268 19.8051C47.6354 19.1109 46.6977 18.721 45.7199 18.721H34.6596V16.2532H70.9127ZM2.70783 31.0597V8.84999C2.70783 7.21377 3.3552 5.64457 4.50754 4.48759C5.65987 3.33062 7.22277 2.68063 8.85241 2.68063H26.0572C27.6869 2.68063 29.2498 3.33062 30.4021 4.48759C31.5544 5.64457 32.2018 7.21377 32.2018 8.84999V31.0597C32.1986 31.4746 32.1528 31.8881 32.0651 32.2935H13.3364L7.42533 37.0409C6.08315 36.7227 4.88717 35.9591 4.03102 34.8736C3.17486 33.7881 2.70864 32.4443 2.70783 31.0597ZM5.16566 52.0355H44.491V74.2451H5.16566V52.0355ZM66.6115 74.2451H64.1536V59.4387H54.3223V74.2451H51.8645V61.9064C51.8645 59.943 52.6413 58.0599 54.0241 56.6716C55.4069 55.2832 57.2824 54.5032 59.238 54.5032C61.1935 54.5032 63.069 55.2832 64.4518 56.6716C65.8346 58.0599 66.6115 59.943 66.6115 61.9064V74.2451ZM61.6958 74.2451H56.7801V61.9064H61.6958V74.2451ZM69.0693 74.2451V61.9064C69.0693 59.2885 68.0335 56.7778 66.1898 54.9266C64.346 53.0754 61.8454 52.0355 59.238 52.0355C56.6305 52.0355 54.1299 53.0754 52.2862 54.9266C50.4424 56.7778 49.4066 59.2885 49.4066 61.9064V74.2451H46.9488V48.0871C47.3491 47.9597 47.7228 47.76 48.0517 47.4979L59.238 38.3087L70.4242 47.4964C70.7545 47.763 71.1274 47.9716 71.5271 48.1133V74.2451H69.0693Z" fill="#E17C26"/>
</svg>
