<svg width="41" height="40" viewBox="0 0 41 40" fill="none" xmlns="http://www.w3.org/2000/svg">
<path d="M0.105957 20.0015C0.105957 31.0472 9.06026 40.0015 20.106 40.0015C31.1517 40.0015 40.106 31.0472 40.106 20.0015C40.106 8.95577 31.1517 0.00146484 20.106 0.00146484C9.06026 0.00146484 0.105957 8.95577 0.105957 20.0015Z" fill="#05A0A5"/>
<path d="M20.106 11.5015C22.856 11.5015 23.231 11.5015 24.356 11.5015C25.356 11.5015 25.856 11.7515 26.231 11.8765C26.731 12.1265 27.106 12.2515 27.481 12.6265C27.856 13.0015 28.106 13.3765 28.231 13.8765C28.356 14.2515 28.481 14.7515 28.606 15.7515C28.606 16.8765 28.606 17.1265 28.606 20.0015C28.606 22.8765 28.606 23.1265 28.606 24.2515C28.606 25.2515 28.356 25.7515 28.231 26.1265C27.981 26.6265 27.856 27.0015 27.481 27.3765C27.106 27.7515 26.731 28.0015 26.231 28.1265C25.856 28.2515 25.356 28.3765 24.356 28.5015C23.231 28.5015 22.981 28.5015 20.106 28.5015C17.231 28.5015 16.981 28.5015 15.856 28.5015C14.856 28.5015 14.356 28.2515 13.981 28.1265C13.481 27.8765 13.106 27.7515 12.731 27.3765C12.356 27.0015 12.106 26.6265 11.981 26.1265C11.856 25.7515 11.731 25.2515 11.606 24.2515C11.606 23.1265 11.606 22.8765 11.606 20.0015C11.606 17.1265 11.606 16.8765 11.606 15.7515C11.606 14.7515 11.856 14.2515 11.981 13.8765C12.231 13.3765 12.356 13.0015 12.731 12.6265C13.106 12.2515 13.481 12.0015 13.981 11.8765C14.356 11.7515 14.856 11.6265 15.856 11.5015C16.981 11.5015 17.356 11.5015 20.106 11.5015ZM20.106 9.62646C17.231 9.62646 16.981 9.62646 15.856 9.62646C14.731 9.62646 13.981 9.87647 13.356 10.1265C12.731 10.3765 12.106 10.7515 11.481 11.3765C10.856 12.0015 10.606 12.5015 10.231 13.2515C9.98096 13.8765 9.85596 14.6265 9.73096 15.7515C9.73096 16.8765 9.73096 17.2515 9.73096 20.0015C9.73096 22.8765 9.73096 23.1265 9.73096 24.2515C9.73096 25.3765 9.98096 26.1265 10.231 26.7515C10.481 27.3765 10.856 28.0015 11.481 28.6265C12.106 29.2515 12.606 29.5015 13.356 29.8765C13.981 30.1265 14.731 30.2515 15.856 30.3765C16.981 30.3765 17.356 30.3765 20.106 30.3765C22.856 30.3765 23.231 30.3765 24.356 30.3765C25.481 30.3765 26.231 30.1265 26.856 29.8765C27.481 29.6265 28.106 29.2515 28.731 28.6265C29.356 28.0015 29.606 27.5015 29.981 26.7515C30.231 26.1265 30.356 25.3765 30.481 24.2515C30.481 23.1265 30.481 22.7515 30.481 20.0015C30.481 17.2515 30.481 16.8765 30.481 15.7515C30.481 14.6265 30.231 13.8765 29.981 13.2515C29.731 12.6265 29.356 12.0015 28.731 11.3765C28.106 10.7515 27.606 10.5015 26.856 10.1265C26.231 9.87647 25.481 9.75146 24.356 9.62646C23.231 9.62646 22.981 9.62646 20.106 9.62646Z" fill="white"/>
<path d="M20.106 14.6265C17.106 14.6265 14.731 17.0015 14.731 20.0015C14.731 23.0015 17.106 25.3765 20.106 25.3765C23.106 25.3765 25.481 23.0015 25.481 20.0015C25.481 17.0015 23.106 14.6265 20.106 14.6265ZM20.106 23.5015C18.231 23.5015 16.606 22.0015 16.606 20.0015C16.606 18.1265 18.106 16.5015 20.106 16.5015C21.981 16.5015 23.606 18.0015 23.606 20.0015C23.606 21.8765 21.981 23.5015 20.106 23.5015Z" fill="white"/>
<path d="M25.606 15.7515C26.2963 15.7515 26.856 15.1918 26.856 14.5015C26.856 13.8111 26.2963 13.2515 25.606 13.2515C24.9156 13.2515 24.356 13.8111 24.356 14.5015C24.356 15.1918 24.9156 15.7515 25.606 15.7515Z" fill="white"/>
</svg>
