<svg width="41" height="40" viewBox="0 0 41 40" fill="none" xmlns="http://www.w3.org/2000/svg">
<path d="M0.105957 20.0015C0.105957 31.0472 9.06026 40.0015 20.106 40.0015C31.1517 40.0015 40.106 31.0472 40.106 20.0015C40.106 8.95577 31.1517 0.00146484 20.106 0.00146484C9.06026 0.00146484 0.105957 8.95577 0.105957 20.0015Z" fill="#05A0A5"/>
<path d="M14.606 30.0015H10.356V16.6265H14.606V30.0015ZM12.481 14.7515C11.106 14.7515 10.106 13.7515 10.106 12.3765C10.106 11.0015 11.231 10.0015 12.481 10.0015C13.856 10.0015 14.856 11.0015 14.856 12.3765C14.856 13.7515 13.856 14.7515 12.481 14.7515ZM30.106 30.0015H25.856V22.7515C25.856 20.6265 24.9809 20.0015 23.7309 20.0015C22.4809 20.0015 21.2309 21.0015 21.2309 22.8765V30.0015H16.981V16.6265H20.981V18.5015C21.356 17.6265 22.8559 16.2515 24.9809 16.2515C27.3559 16.2515 29.856 17.6265 29.856 21.7515V30.0015H30.106Z" fill="white"/>
</svg>
