<svg width="40" height="40" viewBox="0 0 40 40" fill="none" xmlns="http://www.w3.org/2000/svg">
<rect width="40" height="40" rx="20" fill="#E46322"/>
<path d="M15.8377 26H12.5682V15.4883H15.8377V26ZM14.1854 14.082C13.1658 14.082 12.3221 13.2031 12.3221 12.1484C12.3221 11.1289 13.1658 10.2852 14.1854 10.2852C15.24 10.2852 16.0838 11.1289 16.0838 12.1484C16.0838 13.2031 15.24 14.082 14.1854 14.082ZM28.0369 26H24.8025V20.9023C24.8025 19.6719 24.7674 18.125 23.0799 18.125C21.3924 18.125 21.1463 19.4258 21.1463 20.7969V26H17.8768V15.4883H21.0057V16.9297H21.0408C21.4979 16.1211 22.5525 15.2422 24.1346 15.2422C27.4393 15.2422 28.0721 17.4219 28.0721 20.2344V26H28.0369Z" fill="white"/>
</svg>
