<svg width="80" height="80" viewBox="0 0 80 80" fill="none" xmlns="http://www.w3.org/2000/svg">
<circle cx="40" cy="40" r="40" fill="#FAFAFA" fill-opacity="0.17"/>
<path d="M39.9993 23.3359C36.4631 23.3359 33.0717 24.7407 30.5713 27.2412C28.0708 29.7417 26.666 33.133 26.666 36.6693C26.666 45.6693 38.416 55.8359 38.916 56.2693C39.2179 56.5275 39.6021 56.6694 39.9993 56.6694C40.3966 56.6694 40.7808 56.5275 41.0827 56.2693C41.666 55.8359 53.3327 45.6693 53.3327 36.6693C53.3327 33.133 51.9279 29.7417 49.4274 27.2412C46.927 24.7407 43.5356 23.3359 39.9993 23.3359ZM39.9993 52.7526C36.4493 49.4193 29.9993 42.2359 29.9993 36.6693C29.9993 34.0171 31.0529 31.4736 32.9283 29.5982C34.8036 27.7228 37.3472 26.6693 39.9993 26.6693C42.6515 26.6693 45.1951 27.7228 47.0704 29.5982C48.9458 31.4736 49.9993 34.0171 49.9993 36.6693C49.9993 42.2359 43.5493 49.4359 39.9993 52.7526ZM39.9993 30.0026C38.6808 30.0026 37.3919 30.3936 36.2955 31.1261C35.1992 31.8587 34.3447 32.8999 33.8402 34.118C33.3356 35.3362 33.2035 36.6767 33.4608 37.9699C33.718 39.2631 34.353 40.451 35.2853 41.3833C36.2177 42.3157 37.4055 42.9506 38.6987 43.2078C39.992 43.4651 41.3324 43.333 42.5506 42.8285C43.7687 42.3239 44.8099 41.4694 45.5425 40.3731C46.275 39.2767 46.666 37.9878 46.666 36.6693C46.666 34.9012 45.9636 33.2055 44.7134 31.9552C43.4632 30.705 41.7675 30.0026 39.9993 30.0026ZM39.9993 40.0026C39.3401 40.0026 38.6956 39.8071 38.1474 39.4408C37.5993 39.0746 37.172 38.554 36.9197 37.9449C36.6675 37.3358 36.6014 36.6656 36.7301 36.019C36.8587 35.3724 37.1762 34.7784 37.6423 34.3122C38.1085 33.8461 38.7024 33.5286 39.349 33.4C39.9957 33.2714 40.6659 33.3374 41.275 33.5897C41.884 33.842 42.4046 34.2692 42.7709 34.8174C43.1372 35.3655 43.3327 36.01 43.3327 36.6693C43.3327 37.5533 42.9815 38.4012 42.3564 39.0263C41.7312 39.6514 40.8834 40.0026 39.9993 40.0026Z" fill="white"/>
</svg>
