<svg width="10" height="14" viewBox="0 0 10 14" fill="none" xmlns="http://www.w3.org/2000/svg">
<path d="M4.46719 12.8711C0.760156 7.53906 0.0999999 6.98047 0.0999999 5C0.0999999 2.30859 2.2582 0.125 4.975 0.125C7.66641 0.125 9.85 2.30859 9.85 5C9.85 6.98047 9.16445 7.53906 5.45742 12.8711C5.22891 13.2266 4.6957 13.2266 4.46719 12.8711ZM4.975 7.03125C6.09219 7.03125 7.00625 6.14258 7.00625 5C7.00625 3.88281 6.09219 2.96875 4.975 2.96875C3.83242 2.96875 2.94375 3.88281 2.94375 5C2.94375 6.14258 3.83242 7.03125 4.975 7.03125Z" fill="#E17C26"/>
</svg>
