<svg width="119" height="53" viewBox="0 0 119 53" fill="none" xmlns="http://www.w3.org/2000/svg">
<path d="M5.1001 31.5001V17.6001H10.7001V18.9001H6.5001V23.8001H10.1001V25.1001H6.5001V30.2001H10.7001V31.5001C10.8001 31.5001 5.1001 31.5001 5.1001 31.5001Z" fill="white" stroke="white" stroke-width="0.25" stroke-miterlimit="10"/>
<path d="M17.1001 31.5001H15.5001L12.6001 17.6001H14.1001L16.3001 29.1001L18.5001 17.6001H20.0001L17.1001 31.5001Z" fill="white" stroke="white" stroke-width="0.25" stroke-miterlimit="10"/>
<path d="M22.5 31.5001V17.6001H28.1V18.9001H23.9V23.8001H27.5V25.1001H23.9V30.2001H28.1V31.5001H22.5Z" fill="white" stroke="white" stroke-width="0.25" stroke-miterlimit="10"/>
<path d="M36.5 31.5001L34.4 25.6001H34.3H32.4V31.5001H31V17.6001H34.4C36.5 17.6001 37.6 18.6001 37.6 20.5001V22.7001C37.6 24.2001 37 25.0001 35.8 25.4001L38 31.5001H36.5ZM32.3 24.4001H34.1C35.4 24.4001 36 23.8001 36 22.4001V20.9001C36 19.4001 35.4 18.9001 34.1 18.9001H32.3V24.4001Z" fill="white" stroke="white" stroke-width="0.25" stroke-miterlimit="10"/>
<path d="M71.1997 20.5001V28.5001C71.1997 30.5001 69.9997 31.4001 67.9997 31.4001H64.6997V17.6001H67.9997C70.0997 17.6001 71.1997 18.5001 71.1997 20.5001ZM67.8997 18.9001H66.0997V30.2001H67.8997C69.1997 30.2001 69.7997 29.6001 69.7997 28.2001V20.9001C69.7997 19.4001 69.1997 18.9001 67.8997 18.9001Z" fill="white" stroke="white" stroke-width="0.25" stroke-miterlimit="10"/>
<path d="M74.3999 31.5001V17.6001H79.9999V18.9001H75.7999V23.8001H79.3999V25.1001H75.7999V30.2001H79.9999V31.5001H74.3999Z" fill="white" stroke="white" stroke-width="0.25" stroke-miterlimit="10"/>
<path d="M87.3999 22.4003V20.6003C87.3999 19.3003 86.8999 18.7003 85.5999 18.7003C84.2999 18.7003 83.7999 19.3003 83.7999 20.6003V21.6003C83.7999 22.5003 84.0999 22.8003 84.9999 23.3003L86.9999 24.4003C88.0999 25.0003 88.7999 25.7003 88.7999 26.9003V28.7003C88.7999 30.7003 87.6999 31.6003 85.5999 31.6003C83.4999 31.6003 82.3999 30.7003 82.3999 28.7003V26.4003H83.7999V28.4003C83.7999 29.7003 84.2999 30.3003 85.5999 30.3003C86.8999 30.3003 87.3999 29.7003 87.3999 28.4003V27.3003C87.3999 26.4003 86.9999 26.0003 86.0999 25.5003L84.1999 24.4003C82.9999 23.7003 82.3999 23.2003 82.3999 21.9003V20.2003C82.3999 18.3003 83.6999 17.3003 85.5999 17.3003C87.4999 17.3003 88.7999 18.2003 88.7999 20.2003V22.3003C88.7999 22.4003 87.3999 22.4003 87.3999 22.4003Z" fill="white" stroke="white" stroke-width="0.25" stroke-miterlimit="10"/>
<path d="M91.8999 31.5001V17.6001H93.2999V31.5001H91.8999Z" fill="white" stroke="white" stroke-width="0.25" stroke-miterlimit="10"/>
<path d="M103.2 28.7005C103.2 30.7005 102 31.6005 99.9996 31.6005H99.7996C97.6996 31.6005 96.5996 30.7005 96.5996 28.7005V20.4005C96.5996 18.5005 97.7996 17.5005 99.7996 17.5005H99.9996C102.1 17.5005 103.2 18.5005 103.2 20.4005V22.3005H101.8V20.8005C101.8 19.3005 101.2 18.8005 99.8996 18.8005C98.5996 18.8005 97.9996 19.4005 97.9996 20.8005V28.4005C97.9996 29.9005 98.5996 30.4005 99.8996 30.4005C101.2 30.4005 101.8 29.8005 101.8 28.4005V25.8005H99.7996V24.5005H103.2V28.7005Z" fill="white" stroke="white" stroke-width="0.25" stroke-miterlimit="10"/>
<path d="M106.3 31.5001V17.6001H107.7L111.8 28.1001V17.6001H113.1V31.5001H111.7L107.5 20.8001V31.5001H106.3Z" fill="white" stroke="white" stroke-width="0.25" stroke-miterlimit="10"/>
<path d="M48.2998 4.8002V18.6002L55.3998 16.3002V7.60019L55.8998 7.4002V2.7002L48.2998 4.8002Z" fill="#E17C26"/>
<path d="M54.7998 18V30.2H61.4998V22L54.7998 18Z" fill="#E17C26"/>
<path d="M61.8 12.2003C61.9 12.2003 61.9 12.2003 62 12.2003C62.2 12.2003 62.4 12.0003 62.4 11.7003C62.4 11.5003 62.3 11.3003 62.1 11.3003L59.7 9.80029V7.80029C59.7 7.50029 59.5 7.30029 59.3 7.30029C59.1 7.30029 58.9 7.50029 58.9 7.80029V9.30029L56 7.50029C55.8 7.40029 55.6 7.30029 55.4 7.40029L47.3 9.80029C46.9 9.90029 46.7 10.3003 46.7 10.7003V18.4003L45.5 18.8003V13.3003C45.5 13.0003 45.3 12.8003 45.1 12.8003C44.9 12.8003 44.7 13.0003 44.7 13.3003V19.0003L43.7 19.3003C43.5 19.3003 43.4 19.5003 43.4 19.8003C43.4 20.1003 43.6 20.3003 43.8 20.3003H43.9L44.7 20.1003V30.0003H44.2H40.4C40.2 30.0003 40 30.2003 40 30.5003C40 30.8003 40 31.0003 40.3 31.0003H44.1H44.6H47.5H47.8H61.3C61.8 31.0003 62.1 30.6003 62.1 30.1003V22.2003C62.1 21.9003 61.9 21.6003 61.7 21.4003L60.2 20.4003L60.1 20.3003C60.1 20.3003 60 20.3003 60 20.2003L59.8 20.0003V10.9003L61.8 12.2003ZM46.7 30.1003H45.5V19.7003L46.7 19.3003V30.1003ZM56.1 8.60029L58.9 10.4003V19.6003H58.8L56.1 17.9003V8.60029ZM58.9 30.1003H57.2V25.3003L58.9 26.5003V30.1003ZM58.9 25.3003L57.6 24.4003C57.4 24.2003 57 24.2003 56.8 24.4003C56.5 24.6003 56.4 24.9003 56.4 25.2003V30.1003H48H47.7V19.0003L52.8 17.5003C53 17.5003 53.1 17.3003 53.1 17.0003C53.1 16.7003 52.9 16.5003 52.7 16.5003H52.6L47.8 18.0003V10.6003L55.6 8.30029V17.2003L54.8 16.6003C54.6 16.4003 54.2 16.4003 54 16.6003C53.7 16.8003 53.6 17.1003 53.6 17.4003V23.0003C53.6 23.5003 54 23.9003 54.4 23.9003H55.7C56.2 23.9003 56.5 23.5003 56.5 23.0003V18.8003L59.3 20.5003V21.0003V21.1003L58.9 25.3003ZM55.3 18.4003V23.0003H54.1V17.5003L55.3 18.4003ZM61.3 22.2003V30.1003H59.7V21.2003L61.3 22.2003Z" fill="#231F20"/>
<path d="M12.9998 42.1005V46.3005C12.9998 47.4005 12.2998 47.9005 11.0998 47.9005H9.2998V40.5005H11.1998C12.2998 40.6005 12.9998 41.0005 12.9998 42.1005ZM11.1998 41.6005H10.5998V46.8005H11.1998C11.5998 46.8005 11.8998 46.7005 11.8998 46.1005V42.2005C11.7998 41.8005 11.5998 41.6005 11.1998 41.6005Z" fill="white"/>
<path d="M14.0996 47.9005V40.5005H17.2996V41.6005H15.2996V43.6005H16.9996V44.7005H15.2996V46.8005H17.2996V47.9005H14.0996Z" fill="white"/>
<path d="M20.4 43.2005V42.2005C20.4 41.7005 20.1 41.6005 19.8 41.6005C19.5 41.6005 19.2 41.8005 19.2 42.2005V42.7005C19.2 43.1005 19.3 43.2005 19.7 43.4005L20.6 43.9005C21.3 44.3005 21.7 44.6005 21.7 45.4005V46.5005C21.7 47.6005 21 48.0005 19.9 48.0005C18.8 48.0005 18.1 47.6005 18.1 46.5005V45.2005H19.3V46.3005C19.3 46.8005 19.6 47.0005 19.9 47.0005C20.3 47.0005 20.5 46.8005 20.5 46.3005V45.7005C20.5 45.3005 20.4 45.1005 20 44.9005L19.1 44.4005C18.4 44.1005 18 43.7005 18 43.0005V42.0005C18 40.9005 18.8 40.5005 19.8 40.5005C20.8 40.5005 21.6 40.9005 21.6 42.0005V43.2005H20.4Z" fill="white"/>
<path d="M22.5996 47.9005V40.5005H23.7996V47.9005H22.5996Z" fill="white"/>
<path d="M28.5997 46.4004C28.5997 47.5004 27.8997 48.0004 26.6997 48.0004H26.5997C25.4997 48.0004 24.6997 47.6004 24.6997 46.4004V42.0004C24.6997 40.9004 25.3997 40.4004 26.5997 40.4004H26.6997C27.7997 40.4004 28.5997 40.9004 28.5997 42.0004V43.1004H27.3997V42.2004C27.3997 41.7004 27.0997 41.5004 26.6997 41.5004C26.2997 41.5004 25.9997 41.7004 25.9997 42.2004V46.2004C25.9997 46.7004 26.2997 46.9004 26.6997 46.9004C27.0997 46.9004 27.3997 46.8004 27.3997 46.2004V45.1004H26.6997V44.1004H28.5997V46.4004Z" fill="white"/>
<path d="M29.5996 47.9005V40.5005H30.7996L32.2996 45.1005V40.5005H33.3996V47.9005H32.1996L30.5996 43.1005V47.9005H29.5996Z" fill="white"/>
<path d="M48.3 44.1001C48.9 44.2001 49.2 44.7001 49.2 45.3001V46.5001C49.2 47.4001 48.5 48.0001 47.4 48.0001H45.5V40.6001H47.4C48.5 40.6001 49.2 41.1001 49.2 42.1001V43.0001C49.1 43.5001 48.8 44.0001 48.3 44.1001ZM46.6 43.6001H47.3C47.6 43.6001 47.9 43.4001 47.9 43.0001V42.1001C47.9 41.7001 47.7 41.5001 47.3 41.5001H46.6V43.6001ZM47.3 44.6001H46.6V46.8001H47.3C47.6 46.8001 47.9 46.6001 47.9 46.2001V45.1001C47.9 44.8001 47.7 44.6001 47.3 44.6001Z" fill="white"/>
<path d="M53.7001 46.4C53.7001 47.5 53.0001 48 51.9001 48C50.8001 48 50.1001 47.6 50.1001 46.4V40.5H51.3001V46.2C51.3001 46.7 51.5001 46.9 51.9001 46.9C52.3001 46.9 52.5001 46.8 52.5001 46.2V40.5H53.7001V46.4Z" fill="white"/>
<path d="M54.7998 47.9V40.5H55.9998V47.9H54.7998Z" fill="white"/>
<path d="M60.2001 47.9H57.1001V40.5H58.3001V46.8H60.2001V47.9Z" fill="white"/>
<path d="M64.5998 42.1V46.3C64.5998 47.4 63.8998 47.9 62.6998 47.9H60.7998V40.5H62.6998C63.7998 40.6 64.5998 41 64.5998 42.1ZM62.6998 41.6H62.0998V46.8H62.6998C63.0998 46.8 63.3998 46.7 63.3998 46.1V42.2C63.3998 41.8 63.0998 41.6 62.6998 41.6Z" fill="white"/>
<path d="M75.2998 47.4V40H76.4998V47.4H75.2998Z" fill="white"/>
<path d="M77.5996 47.4V40H78.7996L80.2996 44.6V40H81.3996V47.4H80.1996L78.5996 42.6V47.4H77.5996Z" fill="white"/>
<path d="M82.5996 47.4V40H83.7996L85.2996 44.6V40H86.3996V47.4H85.1996L83.5996 42.6V47.4H82.5996Z" fill="white"/>
<path d="M89.2998 40C90.4998 40 91.1998 40.4 91.1998 41.6V46C91.1998 47.1 90.4998 47.6 89.2998 47.6H89.1998C88.0998 47.6 87.2998 47.2 87.2998 46V41.6C87.3998 40.4 88.1998 40 89.2998 40ZM89.2998 46.4C89.6998 46.4 89.9998 46.3 89.9998 45.7V41.7C89.9998 41.2 89.6998 41 89.2998 41C88.8998 41 88.5998 41.1 88.5998 41.7V45.7C88.6998 46.3 88.8998 46.4 89.2998 46.4Z" fill="white"/>
<path d="M94.4998 47.4H93.1998L91.7998 40H92.9998L93.8998 45.5L94.7998 40H95.9998L94.4998 47.4Z" fill="white"/>
<path d="M98.3996 45.8H97.0996L96.7996 47.4H95.5996L96.9996 40H98.4996L99.8996 47.4H98.6996L98.3996 45.8ZM98.2996 44.8L97.7996 41.5L97.2996 44.8H98.2996Z" fill="white"/>
<path d="M103.4 41.1H102.2V47.4H101V41.1H99.7998V40H103.5L103.4 41.1Z" fill="white"/>
<path d="M104 47.4V40H107.2V41.1H105.2V43.1H106.9V44.2H105.2V46.3H107.2V47.4H104Z" fill="white"/>
<path d="M4.8999 35H112.9" stroke="#E17C26" stroke-width="1.2" stroke-miterlimit="10"/>
<path d="M41.7999 43.2002H38.8999V46.1002H41.7999V43.2002Z" fill="#E17C26"/>
<path d="M71.7999 43.2002H68.8999V46.1002H71.7999V43.2002Z" fill="#E17C26"/>
</svg>
