<svg width="110" height="46" viewBox="0 0 110 46" fill="none" xmlns="http://www.w3.org/2000/svg">
<path d="M1.09985 29.5V15.6H6.69985V16.9H2.49985V21.8H6.09985V23.1H2.49985V28.2H6.69985V29.5C6.79985 29.5 1.09985 29.5 1.09985 29.5Z" fill="#E46322" stroke="white" stroke-width="0.25" stroke-miterlimit="10"/>
<path d="M13.0999 29.5H11.4999L8.59985 15.6H10.0999L12.2999 27.1L14.4999 15.6H15.9999L13.0999 29.5Z" fill="#E46322" stroke="white" stroke-width="0.25" stroke-miterlimit="10"/>
<path d="M18.4998 29.5V15.6H24.0998V16.9H19.8998V21.8H23.4998V23.1H19.8998V28.2H24.0998V29.5H18.4998Z" fill="#E46322" stroke="white" stroke-width="0.25" stroke-miterlimit="10"/>
<path d="M32.4998 29.5L30.3998 23.6H30.2998H28.3998V29.5H26.9998V15.6H30.3998C32.4998 15.6 33.5998 16.6 33.5998 18.5V20.7C33.5998 22.2 32.9998 23 31.7998 23.4L33.9998 29.5H32.4998ZM28.2998 22.4H30.0998C31.3998 22.4 31.9998 21.8 31.9998 20.4V18.9C31.9998 17.4 31.3998 16.9 30.0998 16.9H28.2998V22.4Z" fill="#E46322" stroke="white" stroke-width="0.25" stroke-miterlimit="10"/>
<path d="M67.2 18.5V26.5C67.2 28.5 66 29.4 64 29.4H60.7V15.6H64C66.1 15.6 67.2 16.5 67.2 18.5ZM63.9 16.9H62.1V28.2H63.9C65.2 28.2 65.8 27.6 65.8 26.2V18.9C65.8 17.4 65.2 16.9 63.9 16.9Z" fill="#E17C26" stroke="white" stroke-width="0.25" stroke-miterlimit="10"/>
<path d="M70.3999 29.5V15.6H75.9999V16.9H71.7999V21.8H75.3999V23.1H71.7999V28.2H75.9999V29.5H70.3999Z" fill="#E17C26" stroke="white" stroke-width="0.25" stroke-miterlimit="10"/>
<path d="M83.3999 20.4V18.6C83.3999 17.3 82.8999 16.7 81.5999 16.7C80.2999 16.7 79.7999 17.3 79.7999 18.6V19.6C79.7999 20.5 80.0999 20.8 80.9999 21.3L82.9999 22.4C84.0999 23 84.7999 23.7 84.7999 24.9V26.7C84.7999 28.7 83.6999 29.6 81.5999 29.6C79.4999 29.6 78.3999 28.7 78.3999 26.7V24.4H79.7999V26.4C79.7999 27.7 80.2999 28.3 81.5999 28.3C82.8999 28.3 83.3999 27.7 83.3999 26.4V25.3C83.3999 24.4 82.9999 24 82.0999 23.5L80.1999 22.4C78.9999 21.7 78.3999 21.2 78.3999 19.9V18.2C78.3999 16.3 79.6999 15.3 81.5999 15.3C83.4999 15.3 84.7999 16.2 84.7999 18.2V20.3C84.7999 20.4 83.3999 20.4 83.3999 20.4Z" fill="#E17C26" stroke="white" stroke-width="0.25" stroke-miterlimit="10"/>
<path d="M87.8999 29.5V15.6H89.2999V29.5H87.8999Z" fill="#E17C26" stroke="white" stroke-width="0.25" stroke-miterlimit="10"/>
<path d="M99.1999 26.7C99.1999 28.7 97.9999 29.6 95.9999 29.6H95.7999C93.6999 29.6 92.5999 28.7 92.5999 26.7V18.4C92.5999 16.5 93.7999 15.5 95.7999 15.5H95.9999C98.0999 15.5 99.1999 16.5 99.1999 18.4V20.3H97.7999V18.8C97.7999 17.3 97.1999 16.8 95.8999 16.8C94.5999 16.8 93.9999 17.4 93.9999 18.8V26.4C93.9999 27.9 94.5999 28.4 95.8999 28.4C97.1999 28.4 97.7999 27.8 97.7999 26.4V23.8H95.7999V22.5H99.1999V26.7Z" fill="#E17C26" stroke="white" stroke-width="0.25" stroke-miterlimit="10"/>
<path d="M102.3 29.5V15.6H103.7L107.8 26.1V15.6H109.1V29.5H107.7L103.5 18.8V29.5H102.3Z" fill="#E17C26" stroke="white" stroke-width="0.25" stroke-miterlimit="10"/>
<path d="M44.3 2.80001V16.6L51.4001 14.3V5.60001L51.9001 5.40001V0.700012L44.3 2.80001Z" fill="#E17C26"/>
<path d="M50.8 16V28.2H57.5V20L50.8 16Z" fill="#E17C26"/>
<path d="M57.8 10.2C57.9 10.2 57.9 10.2 58 10.2C58.2 10.2 58.4 9.99999 58.4 9.69999C58.4 9.49999 58.3 9.29999 58.1 9.29999L55.7 7.79999V5.79999C55.7 5.49999 55.5 5.29999 55.3 5.29999C55.1 5.29999 54.9 5.49999 54.9 5.79999V7.29999L52 5.49999C51.8 5.39999 51.6 5.29999 51.4 5.39999L43.3 7.79999C42.9 7.89999 42.7 8.29999 42.7 8.69999V16.4L41.5 16.8V11.3C41.5 11 41.3 10.8 41.1 10.8C40.9 10.8 40.7 11 40.7 11.3V17L39.7 17.3C39.5 17.3 39.4 17.5 39.4 17.8C39.4 18.1 39.6 18.3 39.8 18.3H39.9L40.7 18.1V28H40.2H36.4C36.2 28 36 28.2 36 28.5C36 28.8 36 29 36.3 29H40.1H40.6H43.5H43.8H57.3C57.8 29 58.1 28.6 58.1 28.1V20.2C58.1 19.9 57.9 19.6 57.7 19.4L56.2 18.4L56.1 18.3C56.1 18.3 56 18.3 56 18.2L55.8 18V8.89999L57.8 10.2ZM42.7 28.1H41.5V17.7L42.7 17.3V28.1ZM52.1 6.59999L54.9 8.39999V17.6H54.8L52.1 15.9V6.59999ZM54.9 28.1H53.2V23.3L54.9 24.5V28.1ZM54.9 23.3L53.6 22.4C53.4 22.2 53 22.2 52.8 22.4C52.5 22.6 52.4 22.9 52.4 23.2V28.1H44H43.7V17L48.8 15.5C49 15.5 49.1 15.3 49.1 15C49.1 14.7 48.9 14.5 48.7 14.5H48.6L43.8 16V8.59999L51.6 6.29999V15.2L50.8 14.6C50.6 14.4 50.2 14.4 50 14.6C49.7 14.8 49.6 15.1 49.6 15.4V21C49.6 21.5 50 21.9 50.4 21.9H51.7C52.2 21.9 52.5 21.5 52.5 21V16.8L55.3 18.5V19V19.1L54.9 23.3ZM51.3 16.4V21H50.1V15.5L51.3 16.4ZM57.3 20.2V28.1H55.7V19.2L57.3 20.2Z" fill="#231F20"/>
<path d="M8.9998 40.1V44.3C8.9998 45.4 8.2998 45.9 7.0998 45.9H5.2998V38.5H7.1998C8.2998 38.6 8.9998 39 8.9998 40.1ZM7.1998 39.6H6.5998V44.8H7.1998C7.5998 44.8 7.8998 44.7 7.8998 44.1V40.2C7.7998 39.8 7.5998 39.6 7.1998 39.6Z" fill="#E17C26"/>
<path d="M10.0999 45.9V38.5H13.2999V39.6H11.2999V41.6H12.9999V42.7H11.2999V44.8H13.2999V45.9H10.0999Z" fill="#E17C26"/>
<path d="M16.3998 41.2V40.2C16.3998 39.7 16.0998 39.6 15.7998 39.6C15.4998 39.6 15.1998 39.8 15.1998 40.2V40.7C15.1998 41.1 15.2998 41.2 15.6998 41.4L16.5998 41.9C17.2998 42.3 17.6998 42.6 17.6998 43.4V44.5C17.6998 45.6 16.9998 46 15.8998 46C14.7998 46 14.0998 45.6 14.0998 44.5V43.2H15.2998V44.3C15.2998 44.8 15.5998 45 15.8998 45C16.2998 45 16.4998 44.8 16.4998 44.3V43.7C16.4998 43.3 16.3998 43.1 15.9998 42.9L15.0998 42.4C14.3998 42.1 13.9998 41.7 13.9998 41V40C13.9998 38.9 14.7998 38.5 15.7998 38.5C16.7998 38.5 17.5998 38.9 17.5998 40V41.2H16.3998Z" fill="#E17C26"/>
<path d="M18.5999 45.9V38.5H19.7999V45.9H18.5999Z" fill="#E17C26"/>
<path d="M24.5997 44.4C24.5997 45.5 23.8997 46 22.6997 46H22.5997C21.4997 46 20.6997 45.6 20.6997 44.4V40C20.6997 38.9 21.3997 38.4 22.5997 38.4H22.6997C23.7997 38.4 24.5997 38.9 24.5997 40V41.1H23.3997V40.2C23.3997 39.7 23.0997 39.5 22.6997 39.5C22.2997 39.5 21.9997 39.7 21.9997 40.2V44.2C21.9997 44.7 22.2997 44.9 22.6997 44.9C23.0997 44.9 23.3997 44.8 23.3997 44.2V43.1H22.6997V42.1H24.5997V44.4Z" fill="#E17C26"/>
<path d="M25.5999 45.9V38.5H26.7999L28.2999 43.1V38.5H29.3999V45.9H28.1999L26.5999 41.1V45.9H25.5999Z" fill="#E17C26"/>
<path d="M44.3 42.1C44.9 42.2 45.2 42.7 45.2 43.3V44.5C45.2 45.4 44.5 46 43.4 46H41.5V38.6H43.4C44.5 38.6 45.2 39.1 45.2 40.1V41C45.1 41.5 44.8 42 44.3 42.1ZM42.6 41.6H43.3C43.6 41.6 43.9 41.4 43.9 41V40.1C43.9 39.7 43.7 39.5 43.3 39.5H42.6V41.6ZM43.3 42.6H42.6V44.8H43.3C43.6 44.8 43.9 44.6 43.9 44.2V43.1C43.9 42.8 43.7 42.6 43.3 42.6Z" fill="#E17C26"/>
<path d="M49.7001 44.4C49.7001 45.5 49.0001 46 47.9001 46C46.8001 46 46.1001 45.6 46.1001 44.4V38.5H47.3001V44.2C47.3001 44.7 47.5001 44.9 47.9001 44.9C48.3001 44.9 48.5001 44.8 48.5001 44.2V38.5H49.7001V44.4Z" fill="#E17C26"/>
<path d="M50.8 45.9V38.5H52V45.9H50.8Z" fill="#E17C26"/>
<path d="M56.2001 45.9H53.1001V38.5H54.3001V44.8H56.2001V45.9Z" fill="#E17C26"/>
<path d="M60.6 40.1V44.3C60.6 45.4 59.9001 45.9 58.7001 45.9H56.8V38.5H58.7001C59.8001 38.6 60.6 39 60.6 40.1ZM58.7001 39.6H58.1V44.8H58.7001C59.1001 44.8 59.4001 44.7 59.4001 44.1V40.2C59.4001 39.8 59.1001 39.6 58.7001 39.6Z" fill="#E17C26"/>
<path d="M71.2998 45.4V38H72.4998V45.4H71.2998Z" fill="#E17C26"/>
<path d="M73.5999 45.4V38H74.7999L76.2999 42.6V38H77.3999V45.4H76.1999L74.5999 40.6V45.4H73.5999Z" fill="#E17C26"/>
<path d="M78.5999 45.4V38H79.7999L81.2999 42.6V38H82.3999V45.4H81.1999L79.5999 40.6V45.4H78.5999Z" fill="#E17C26"/>
<path d="M85.2998 38C86.4998 38 87.1998 38.4 87.1998 39.6V44C87.1998 45.1 86.4998 45.6 85.2998 45.6H85.1998C84.0998 45.6 83.2998 45.2 83.2998 44V39.6C83.3998 38.4 84.1998 38 85.2998 38ZM85.2998 44.4C85.6998 44.4 85.9998 44.3 85.9998 43.7V39.7C85.9998 39.2 85.6998 39 85.2998 39C84.8998 39 84.5998 39.1 84.5998 39.7V43.7C84.6998 44.3 84.8998 44.4 85.2998 44.4Z" fill="#E17C26"/>
<path d="M90.4998 45.4H89.1998L87.7998 38H88.9998L89.8998 43.5L90.7998 38H91.9998L90.4998 45.4Z" fill="#E17C26"/>
<path d="M94.3999 43.8H93.0999L92.7999 45.4H91.5999L92.9999 38H94.4999L95.8999 45.4H94.6999L94.3999 43.8ZM94.2999 42.8L93.7999 39.5L93.2999 42.8H94.2999Z" fill="#E17C26"/>
<path d="M99.3998 39.1H98.1998V45.4H96.9998V39.1H95.7998V38H99.4998L99.3998 39.1Z" fill="#E17C26"/>
<path d="M99.9998 45.4V38H103.2V39.1H101.2V41.1H102.9V42.2H101.2V44.3H103.2V45.4H99.9998Z" fill="#E17C26"/>
<path d="M0.899902 33H108.9" stroke="#E17C26" stroke-width="1.2" stroke-miterlimit="10"/>
<path d="M37.7999 41.2H34.8999V44.1H37.7999V41.2Z" fill="#E17C26"/>
<path d="M67.7999 41.2H64.8999V44.1H67.7999V41.2Z" fill="#E17C26"/>
</svg>
