<svg width="14" height="12" viewBox="0 0 14 12" fill="none" xmlns="http://www.w3.org/2000/svg">
<path d="M11.8282 2.03513C13.5837 3.50977 13.3263 5.92068 12.0857 7.20807L7.96606 11.3979C7.73199 11.632 7.4277 11.7724 7.1 11.7724C6.7489 11.7724 6.4446 11.632 6.21053 11.3979L2.11431 7.20807C0.850336 5.92068 0.592859 3.50977 2.34838 2.03513C3.70599 0.888184 5.78921 1.05203 7.1 2.38623C8.38738 1.05203 10.4706 0.888184 11.8282 2.03513ZM11.2664 6.41223C12.1325 5.54617 12.2964 3.90768 11.1026 2.87778C10.1897 2.12875 8.7853 2.24579 7.91924 3.13525L7.1 3.97791L6.28076 3.13525C5.39129 2.24579 3.98687 2.12875 3.074 2.90118C1.88024 3.90768 2.04409 5.54617 2.91015 6.41223L7.00637 10.6021C7.07659 10.6489 7.12341 10.6489 7.17022 10.6021L11.2664 6.41223Z" fill="#E17C26"/>
</svg>
