<svg width="80" height="80" viewBox="0 0 80 80" fill="none" xmlns="http://www.w3.org/2000/svg">
<circle cx="40" cy="40" r="40" fill="#FAFAFA" fill-opacity="0.17"/>
<path d="M24.375 25H55.625C58.04 25 60 26.96 60 29.375V50.625C60 51.7853 59.5391 52.8981 58.7186 53.7186C57.8981 54.5391 56.7853 55 55.625 55H24.375C23.2147 55 22.1019 54.5391 21.2814 53.7186C20.4609 52.8981 20 51.7853 20 50.625V29.375C20 26.96 21.96 25 24.375 25ZM23.75 50.6275C23.75 50.9725 24.03 51.2525 24.375 51.2525H55.625C55.7908 51.2525 55.9497 51.1867 56.0669 51.0694C56.1842 50.9522 56.25 50.7933 56.25 50.6275V34.5225L40.95 43.4925C40.662 43.6617 40.334 43.751 40 43.751C39.666 43.751 39.338 43.6617 39.05 43.4925L23.75 34.5225V50.6275ZM56.25 30.175V29.375C56.25 29.2092 56.1842 29.0503 56.0669 28.9331C55.9497 28.8158 55.7908 28.75 55.625 28.75H24.375C24.2092 28.75 24.0503 28.8158 23.9331 28.9331C23.8159 29.0503 23.75 29.2092 23.75 29.375V30.175L40 39.7L56.25 30.175Z" fill="white"/>
</svg>
