<svg width="80" height="80" viewBox="0 0 80 80" fill="none" xmlns="http://www.w3.org/2000/svg">
<circle cx="40" cy="40" r="40" fill="#FAFAFA" fill-opacity="0.17"/>
<path d="M49.4569 46.2352C49.1046 45.8811 48.6861 45.6001 48.2252 45.4084C47.7643 45.2167 47.2702 45.118 46.7711 45.118C46.2721 45.118 45.778 45.2167 45.3171 45.4084C44.8562 45.6001 44.4377 45.8811 44.0854 46.2352L42.2528 48.0712C40.1894 46.7593 38.2777 45.222 36.5527 43.4876C34.8252 41.7562 33.291 39.8414 31.9775 37.7771L33.8101 35.9411C34.1636 35.5882 34.4441 35.1689 34.6354 34.7071C34.8268 34.2454 34.9253 33.7504 34.9253 33.2504C34.9253 32.7505 34.8268 32.2555 34.6354 31.7937C34.4441 31.332 34.1636 30.9127 33.8101 30.5598L30.2333 26.9891C29.8861 26.6338 29.471 26.3521 29.0129 26.1607C28.5548 25.9693 28.0629 25.8721 27.5666 25.8749C27.0667 25.8736 26.5715 25.9715 26.1095 26.1627C25.6475 26.3539 25.2278 26.6348 24.8745 26.9891L23.1557 28.6985C22.3364 29.581 21.7249 30.6362 21.3662 31.7866C21.0075 32.9369 20.9107 34.1532 21.0829 35.346C21.4873 40.0942 24.5965 45.8047 29.3865 50.6163C34.1766 55.4278 39.9399 58.53 44.6794 58.9858C45.0331 59.0047 45.3875 59.0047 45.7411 58.9858C46.7613 59.0287 47.7798 58.8671 48.7369 58.5106C49.694 58.154 50.5704 57.6096 51.3148 56.9092L53.021 55.1872C53.3747 54.8333 53.655 54.4128 53.8459 53.95C54.0368 53.4871 54.1344 52.991 54.1332 52.4902C54.136 51.993 54.039 51.5002 53.8479 51.0412C53.6569 50.5823 53.3757 50.1665 53.021 49.8186L49.4569 46.2352ZM51.2389 53.4019L49.5201 55.1113C48.8845 55.6419 48.1426 56.0296 47.3445 56.248C46.5465 56.4665 45.7109 56.5106 44.8943 56.3774C40.7867 56.0229 35.5543 53.1107 31.2318 48.7803C26.9094 44.4499 24.0025 39.2459 23.6107 35.1307C23.4744 34.3127 23.5168 33.4747 23.735 32.6747C23.9532 31.8746 24.3419 31.1315 24.8745 30.4965L26.6566 28.7745C26.7747 28.6571 26.9147 28.5643 27.0687 28.5012C27.2227 28.4382 27.3876 28.4063 27.5539 28.4073C27.7203 28.4063 27.8852 28.4382 28.0392 28.5012C28.1931 28.5643 28.3332 28.6571 28.4513 28.7745L32.0281 32.3958C32.2634 32.633 32.3956 32.9539 32.3956 33.2884C32.3956 33.6229 32.2634 33.9439 32.0281 34.1811L29.5003 36.7135C29.3025 36.9107 29.1754 37.1679 29.1388 37.445C29.1022 37.7222 29.1582 38.0037 29.2981 38.2456C30.8114 40.8266 32.6508 43.2014 34.7707 45.3109C36.8764 47.4347 39.2467 49.2774 41.8231 50.7935C42.0646 50.9336 42.3455 50.9897 42.6221 50.9531C42.8988 50.9164 43.1555 50.7891 43.3524 50.5909L45.8801 48.0586C46.1169 47.8227 46.4372 47.6904 46.7711 47.6904C47.105 47.6904 47.4254 47.8227 47.6622 48.0586L51.2389 51.6419C51.3561 51.7602 51.4488 51.9005 51.5116 52.0548C51.5745 52.2091 51.6064 52.3742 51.6055 52.5409C51.5976 52.8643 51.4664 53.1723 51.2389 53.4019ZM53.4381 26.5586C51.6816 24.7922 49.5935 23.3917 47.2942 22.4376C44.9948 21.4836 42.5297 20.995 40.041 21C39.7058 21 39.3843 21.1334 39.1473 21.3709C38.9103 21.6083 38.7771 21.9304 38.7771 22.2662C38.7771 22.602 38.9103 22.9241 39.1473 23.1616C39.3843 23.399 39.7058 23.5324 40.041 23.5324C42.2104 23.5323 44.3584 23.9627 46.3609 24.7986C48.3635 25.6345 50.1809 26.8594 51.7085 28.4027C53.236 29.946 54.4433 31.7771 55.2608 33.7903C56.0783 35.8034 56.4897 37.9589 56.4714 40.1322C56.4714 40.468 56.6045 40.7901 56.8416 41.0275C57.0786 41.265 57.4001 41.3984 57.7353 41.3984C58.0705 41.3984 58.3919 41.265 58.6289 41.0275C58.866 40.7901 58.9991 40.468 58.9991 40.1322C59.0233 37.6124 58.5438 35.1132 57.5887 32.782C56.6336 30.4508 55.2223 28.3348 53.4381 26.5586Z" fill="white"/>
<path d="M46.3918 33.5813C47.0854 34.2632 47.6341 35.0754 48.0055 35.9701C48.377 36.8648 48.5638 37.824 48.555 38.7912C48.555 39.1118 48.6837 39.4193 48.9129 39.646C49.1421 39.8726 49.453 40 49.7771 40C50.1012 40 50.4121 39.8726 50.6413 39.646C50.8705 39.4193 50.9992 39.1118 50.9992 38.7912C51.0154 37.5111 50.7745 36.2406 50.2904 35.0534C49.8063 33.8662 49.0887 32.7858 48.1792 31.875C47.2697 30.9642 46.1864 30.241 44.9921 29.7475C43.7979 29.254 42.5164 28.9999 41.2221 29C40.898 29 40.5872 29.1273 40.358 29.354C40.1288 29.5807 40 29.8882 40 30.2088C40 30.5294 40.1288 30.8368 40.358 31.0635C40.5872 31.2902 40.898 31.4176 41.2221 31.4176C42.1853 31.4248 43.1376 31.6195 44.0246 31.9908C44.9116 32.3621 45.716 32.9025 46.3918 33.5813Z" fill="white"/>
</svg>
