<svg width="21" height="19" viewBox="0 0 21 19" fill="none" xmlns="http://www.w3.org/2000/svg">
<path d="M2 2H1V0H19V2H18L16.6 9C15.83 9.07 15.11 9.26 14.45 9.58L15.96 2H4.04L4.5 4.22L2.65 5.27L2 2ZM10.86 4C10.7971 3.88434 10.7114 3.78262 10.6081 3.70095C10.5048 3.61928 10.386 3.55936 10.259 3.52479C10.1319 3.49022 9.99915 3.48172 9.86872 3.4998C9.73829 3.51788 9.61287 3.56217 9.5 3.63L1.27 8.38C1.15641 8.44566 1.05686 8.53305 0.977041 8.63719C0.897221 8.74132 0.838694 8.86015 0.804801 8.98691C0.770907 9.11366 0.762311 9.24584 0.779504 9.37592C0.796696 9.50599 0.839341 9.63141 0.905001 9.745C0.970662 9.85859 1.05805 9.95814 1.16219 10.038C1.26632 10.1178 1.38516 10.1763 1.51191 10.2102C1.63866 10.2441 1.77085 10.2527 1.90092 10.2355C2.03099 10.2183 2.15641 10.1757 2.27 10.11L10.5 5.36C10.97 5.09 11.14 4.47 10.86 4ZM11 15H6.64L5.73 10.43L3.9 11.5L5 17H11.35C11.13 16.37 11 15.7 11 15ZM16 11V14H13V16H16V19H18V16H21V14H18V11H16Z" fill="#AAA0A0"/>
</svg>
