<svg width="77" height="75" viewBox="0 0 77 75" fill="none" xmlns="http://www.w3.org/2000/svg">
<g clip-path="url(#clip0_6_11261)">
<path d="M72.2517 38.8478H72.1953V16.3788C72.1941 15.9307 72.0153 15.5015 71.6981 15.1851C71.3809 14.8687 70.9511 14.691 70.5031 14.691H61.5895L54.9276 1.51572C54.724 1.11577 54.37 0.812972 53.9434 0.673815C53.5167 0.534658 53.0523 0.570522 52.652 0.773532L25.1406 14.691H7.35633C5.58217 14.6826 3.87438 15.365 2.59462 16.5938C1.31486 17.8225 0.563619 19.5012 0.5 21.2742L0.5 67.4799C0.501965 69.2977 1.22496 71.0405 2.51034 72.3259C3.79573 73.6112 5.53852 74.3342 7.35633 74.3362H70.5031C70.9519 74.3354 71.3821 74.1567 71.6993 73.8392C72.0166 73.5217 72.1949 73.0913 72.1953 72.6425V59.6023H72.2502C73.3753 59.6015 74.4542 59.1549 75.2507 58.3604C76.0473 57.5658 76.4965 56.488 76.5 55.3629V43.096C76.4988 41.9697 76.0509 40.8898 75.2544 40.0933C74.458 39.2969 73.3781 38.8489 72.2517 38.8478ZM68.8109 18.0665V24.6363H66.6215L63.3009 18.0754L68.8109 18.0665ZM26.3029 17.8839L52.6698 4.55424L59.0363 17.1417L62.8274 24.6363H59.5455C59.5247 24.5773 59.4999 24.5198 59.4712 24.4642L55.1146 15.8548C54.9488 15.5262 54.6805 15.2607 54.3502 15.0983C54.0199 14.936 53.6458 14.8858 53.2844 14.9553L52.7663 15.0547C51.7919 15.2391 50.7845 15.1235 49.8772 14.723C48.97 14.3225 48.2056 13.6561 47.6853 12.8118L47.3469 12.2611C47.1254 11.898 46.775 11.6319 46.3657 11.516C45.9565 11.4001 45.5186 11.4431 45.1396 11.6362L19.4243 24.6363H12.9688L26.3029 17.8839ZM55.7648 24.6363H26.9219L45.3281 15.3338C46.1887 16.4302 47.3108 17.2931 48.5914 17.8434C49.872 18.3937 51.2702 18.6138 52.658 18.4836L55.7648 24.6363ZM7.35633 18.0724H18.4416L6.00406 24.3632C5.53101 24.1601 5.10849 23.8553 4.76652 23.4705C4.42454 23.0857 4.17151 22.6303 4.02539 22.1367L4.01648 22.1085C3.99867 22.0431 3.98234 21.9763 3.9675 21.9095C3.95266 21.8428 3.94523 21.7938 3.93484 21.7344C3.92445 21.675 3.92 21.6424 3.91406 21.5949C3.90516 21.5132 3.89773 21.4316 3.89328 21.3485C3.93869 20.4619 4.32382 19.6269 4.96869 19.0169C5.61357 18.4068 6.46863 18.0686 7.35633 18.0724ZM68.8109 70.9488H7.35781C6.43748 70.9469 5.55544 70.5802 4.90494 69.9292C4.25444 69.2781 3.88852 68.3957 3.88734 67.4754V66.6872H55.6148C55.8372 66.6938 56.0586 66.6566 56.2665 66.5777C56.4745 66.4987 56.6648 66.3796 56.8267 66.227C56.9886 66.0745 57.1189 65.8916 57.2101 65.6888C57.3013 65.4859 57.3516 65.2671 57.3582 65.0447C57.3649 64.8224 57.3276 64.601 57.2487 64.393C57.1697 64.1851 57.0506 63.9948 56.8981 63.8329C56.7456 63.671 56.5627 63.5407 56.3598 63.4495C56.1569 63.3583 55.9381 63.308 55.7158 63.3013H3.88586V27.0826C4.57465 27.483 5.3282 27.7598 6.11242 27.9005H6.21187C6.31281 27.9168 6.41227 27.9317 6.50875 27.9435L6.56813 27.951L6.71656 27.9643C6.78633 27.9643 6.85461 27.9792 6.92586 27.9821H6.97781C7.10992 27.9821 7.23461 27.9925 7.35633 27.9925H68.8095V31.7613H16.6307C16.1817 31.748 15.7458 31.9135 15.4188 32.2215C15.0919 32.5295 14.9007 32.9548 14.8873 33.4038C14.8739 33.8528 15.0394 34.2887 15.3475 34.6157C15.6555 34.9426 16.0808 35.1338 16.5298 35.1472H68.8109V38.8581H44.3188C44.0967 38.8578 43.8768 38.9011 43.6715 38.9857C43.4662 39.0703 43.2796 39.1945 43.1224 39.3512C42.9651 39.508 42.8402 39.6941 42.7549 39.8991C42.6696 40.1041 42.6255 40.3238 42.6251 40.5459V57.9131C42.6259 58.3619 42.8046 58.7921 43.1221 59.1093C43.4396 59.4265 43.8699 59.6049 44.3188 59.6053H68.8109V70.9488ZM72.2517 56.2149H46.0139V42.2321H72.2517C72.4804 42.2321 72.6998 42.323 72.8615 42.4847C73.0233 42.6465 73.1141 42.8658 73.1141 43.0946V55.3629C73.1126 55.5906 73.021 55.8084 72.8595 55.9689C72.6979 56.1294 72.4794 56.2194 72.2517 56.2194V56.2149Z" fill="#E17C26"/>
<path d="M54.4244 42.8335C53.1603 42.8335 51.9245 43.2084 50.8734 43.9107C49.8223 44.613 49.003 45.6113 48.5193 46.7792C48.0355 47.9471 47.9089 49.2323 48.1555 50.4722C48.4022 51.7121 49.0109 52.8509 49.9048 53.7448C50.7987 54.6387 51.9376 55.2475 53.1775 55.4941C54.4173 55.7407 55.7025 55.6142 56.8704 55.1304C58.0384 54.6466 59.0366 53.8274 59.739 52.7763C60.4413 51.7252 60.8162 50.4894 60.8162 49.2252C60.8142 47.5306 60.1401 45.906 58.9419 44.7078C57.7436 43.5095 56.119 42.8355 54.4244 42.8335ZM54.4244 52.2311C53.8299 52.2314 53.2487 52.0554 52.7542 51.7253C52.2597 51.3953 51.8742 50.926 51.6465 50.3769C51.4187 49.8277 51.3589 49.2234 51.4746 48.6403C51.5903 48.0571 51.8763 47.5214 52.2964 47.1008C52.7166 46.6802 53.2521 46.3937 53.8351 46.2774C54.4181 46.1611 55.0225 46.2204 55.5719 46.4476C56.1212 46.6748 56.5909 47.0599 56.9214 47.554C57.2519 48.0482 57.4285 48.6292 57.4288 49.2237C57.428 50.0204 57.1113 50.7843 56.5481 51.3478C55.9849 51.9113 55.2211 52.2284 54.4244 52.2296V52.2311Z" fill="#E17C26"/>
<path d="M62.4223 64.6688C62.4008 64.5605 62.3685 64.4545 62.3258 64.3526C62.2843 64.2485 62.2321 64.149 62.17 64.0557C62.1085 63.9637 62.0385 63.8777 61.9607 63.799C61.7632 63.6025 61.5205 63.4577 61.2539 63.3772C60.9873 63.2967 60.7049 63.283 60.4318 63.3373C60.3229 63.3568 60.2168 63.3892 60.1156 63.4338C60.0114 63.4721 59.9119 63.5219 59.8187 63.5822C59.7258 63.6432 59.6393 63.7133 59.5604 63.7915C59.4815 63.8693 59.4114 63.9554 59.3511 64.0483C59.289 64.1416 59.2368 64.2411 59.1953 64.3452C59.0665 64.6544 59.0329 64.995 59.0988 65.3234C59.1214 65.4315 59.1537 65.5373 59.1953 65.6396C59.2368 65.7437 59.289 65.8432 59.3511 65.9365C59.4129 66.0287 59.483 66.1152 59.5604 66.1947C59.6408 66.2718 59.7271 66.3423 59.8187 66.4055C59.9127 66.4665 60.0121 66.5187 60.1156 66.5614C60.3207 66.6466 60.5407 66.6905 60.7628 66.6905C60.9849 66.6905 61.2049 66.6466 61.41 66.5614C61.5135 66.5187 61.6129 66.4665 61.7068 66.4055C61.7984 66.3423 61.8848 66.2718 61.9651 66.1947C62.0426 66.1152 62.1126 66.0287 62.1744 65.9365C62.2365 65.8432 62.2888 65.7437 62.3303 65.6396C62.3718 65.5373 62.4041 65.4315 62.4268 65.3234C62.4492 65.214 62.4606 65.1026 62.4609 64.9909C62.4592 64.8825 62.4463 64.7745 62.4223 64.6688Z" fill="#E17C26"/>
<path d="M13.1438 33.1211C13.1216 33.013 13.0893 32.9071 13.0473 32.805C13.0072 32.7016 12.9575 32.6022 12.8989 32.5081C12.8364 32.416 12.7653 32.33 12.6866 32.2513C12.6097 32.1715 12.5235 32.1013 12.4298 32.042C12.3367 31.9817 12.2371 31.9319 12.1329 31.8936C12.0312 31.8505 11.9252 31.8181 11.8168 31.7971C11.5983 31.7525 11.3732 31.7525 11.1547 31.7971C11.0459 31.8165 10.9397 31.8489 10.8386 31.8936C10.6309 31.9769 10.4422 32.1011 10.2834 32.2587C10.048 32.4964 9.88786 32.7981 9.82292 33.1263C9.75798 33.4544 9.79114 33.7944 9.91825 34.1038C9.95721 34.2077 10.007 34.3072 10.0667 34.4007C10.1281 34.4927 10.1982 34.5787 10.276 34.6575C10.3549 34.7361 10.4414 34.8067 10.5343 34.8683C10.6282 34.9272 10.7276 34.9769 10.8311 35.0167C11.1402 35.1461 11.481 35.1797 11.8093 35.1132C11.9175 35.0907 12.0233 35.0584 12.1255 35.0167C12.3306 34.9313 12.5172 34.8067 12.6747 34.65C12.8323 34.4929 12.9574 34.3063 13.0429 34.1008C13.0844 33.9985 13.1167 33.8927 13.1393 33.7847C13.1601 33.675 13.1705 33.5637 13.1705 33.4522C13.1716 33.3412 13.1627 33.2304 13.1438 33.1211Z" fill="#E17C26"/>
</g>
<defs>
<clipPath id="clip0_6_11261">
<rect width="76" height="73.7467" fill="white" transform="translate(0.5 0.589355)"/>
</clipPath>
</defs>
</svg>
