<svg width="40" height="40" viewBox="0 0 40 40" fill="none" xmlns="http://www.w3.org/2000/svg">
<rect width="40" height="40" rx="20" fill="#E46322"/>
<path d="M29.3408 14.6445C29.7627 16.1211 29.7627 19.2852 29.7627 19.2852C29.7627 19.2852 29.7627 22.4141 29.3408 23.9258C29.1299 24.7695 28.4619 25.4023 27.6533 25.6133C26.1416 26 20.165 26 20.165 26C20.165 26 14.1533 26 12.6416 25.6133C11.833 25.4023 11.165 24.7695 10.9541 23.9258C10.5322 22.4141 10.5322 19.2852 10.5322 19.2852C10.5322 19.2852 10.5322 16.1211 10.9541 14.6445C11.165 13.8008 11.833 13.1328 12.6416 12.9219C14.1533 12.5 20.165 12.5 20.165 12.5C20.165 12.5 26.1416 12.5 27.6533 12.9219C28.4619 13.1328 29.1299 13.8008 29.3408 14.6445ZM18.1963 22.1328L23.1885 19.2852L18.1963 16.4375V22.1328Z" fill="white"/>
</svg>
